<svg width="1111" height="1111" viewBox="0 0 1111 1111" fill="none" xmlns="http://www.w3.org/2000/svg">
<path d="M243.644 993.352C288.534 993.352 324.924 985.691 324.924 976.24C324.924 966.789 288.534 959.127 243.644 959.127C198.755 959.127 162.365 966.789 162.365 976.24C162.365 985.691 198.755 993.352 243.644 993.352Z" fill="#E0E0E0"/>
<path d="M909.231 788.041C954.121 788.041 990.511 780.379 990.511 770.928C990.511 761.477 954.121 753.815 909.231 753.815C864.342 753.815 827.952 761.477 827.952 770.928C827.952 780.379 864.342 788.041 909.231 788.041Z" fill="#E0E0E0"/>
<path d="M191.106 849.708L167.85 867.266C411.805 946.879 681.42 945.522 924.561 863.39C679.927 865.58 435.022 867.518 191.106 849.708Z" fill="#E0E0E0"/>
<path d="M859.657 351.118C861.123 347.311 863.141 343.739 865.646 340.518C868.483 337.085 872.511 334.849 876.925 334.258C881.499 333.773 886.615 335.886 888.049 339.607C888.708 331.215 890.103 322.61 895.026 315.324C897.446 311.419 900.84 308.21 904.875 306.013C908.91 303.816 913.447 302.706 918.04 302.792C922.633 302.878 927.125 304.157 931.075 306.504C935.025 308.85 938.296 312.184 940.569 316.176C944.987 323.153 946.499 320.924 947.933 328.754C951.46 325.072 958.883 326.215 962.546 329.8C966.209 333.386 967.139 338.347 967.914 343.056L854.231 353.289L859.657 351.118Z" fill="#F5F5F5"/>
<path d="M130.078 516.992C131.539 513.182 133.558 509.609 136.066 506.391C138.892 502.954 142.916 500.717 147.326 500.131C151.919 499.647 157.016 501.759 158.469 505.48C159.128 497.088 160.524 488.484 165.446 481.197C168.066 477.276 171.629 474.077 175.808 471.893C179.986 469.709 184.647 468.61 189.361 468.697C193.761 469.071 198.011 470.474 201.768 472.794C205.525 475.113 208.684 478.284 210.989 482.049C215.389 489.026 216.92 486.778 218.354 494.627C221.881 490.945 229.284 492.088 232.966 495.674C236.648 499.259 237.559 504.22 238.334 508.93L124.651 519.162L130.078 516.992Z" fill="#F5F5F5"/>
<path d="M229.575 208.482C231.09 205.313 233.113 202.413 235.563 199.896C238.642 196.99 242.607 195.202 246.823 194.819C251.397 194.431 256.513 196.137 257.967 199.16C258.625 192.338 260.021 185.361 264.924 179.451C267.917 176.098 271.616 173.451 275.754 171.698C279.893 169.946 284.368 169.132 288.858 169.315C293.023 169.486 297.104 170.538 300.832 172.402C304.56 174.266 307.851 176.9 310.486 180.129C314.886 185.807 316.3 184.005 317.851 190.342C321.359 187.358 328.781 188.288 332.444 191.195C336.107 194.102 337.056 198.133 337.832 201.951L224.148 210.265L229.575 208.482Z" fill="#F5F5F5"/>
<path d="M488.492 972.17C488.492 972.442 464.674 972.674 435.294 972.674C405.914 972.674 382.018 972.403 382.018 972.17C382.018 971.938 405.836 971.667 435.216 971.667C464.596 971.667 488.492 971.841 488.492 972.17Z" fill="#263238"/>
<path d="M517.911 983.973C517.911 984.263 496.38 984.477 469.848 984.477C443.317 984.477 421.786 984.263 421.786 983.973C421.786 983.682 443.298 983.469 469.848 983.469C496.399 983.469 517.911 983.798 517.911 983.973Z" fill="#263238"/>
<path d="M864.58 949.011C864.58 949.282 847.816 949.515 827.157 949.515C806.498 949.515 789.715 949.282 789.715 949.011C789.715 948.74 806.479 948.507 827.157 948.507C847.836 948.507 864.58 948.72 864.58 949.011Z" fill="#263238"/>
<path d="M894.58 959.283C894.58 959.573 879.444 959.787 860.782 959.787C842.119 959.787 826.963 959.573 826.963 959.283C826.963 958.992 842.099 958.779 860.782 958.779C879.464 958.779 894.58 959.011 894.58 959.283Z" fill="#263238"/>
<path d="M886.518 939.108C886.518 939.399 871.382 939.612 852.7 939.612C834.018 939.612 818.882 939.399 818.882 939.108C818.882 938.817 834.018 938.604 852.7 938.604C871.382 938.604 886.518 938.837 886.518 939.108Z" fill="#263238"/>
<path d="M1012.78 738.273C1012.78 738.564 807.583 738.777 554.519 738.777C301.455 738.777 96.2212 738.564 96.2212 738.273C96.2212 737.982 301.378 737.769 554.519 737.769C807.661 737.769 1012.78 738.002 1012.78 738.273Z" fill="#263238"/>
<path d="M992.372 765.288C992.372 772.556 958.728 778.467 917.255 778.467C875.781 778.467 842.118 772.556 842.118 765.288C842.118 764.377 842.312 758.04 842.312 758.04C849.25 752.032 880.878 752.09 917.255 752.09C953.224 752.09 985.085 750.404 992.236 758.195C992.372 758.35 992.372 764.319 992.372 765.288Z" fill="#263238"/>
<path d="M992.372 757.827C992.372 764.455 958.728 769.823 917.255 769.823C875.781 769.823 842.118 764.455 842.118 757.827C842.118 751.199 875.762 745.812 917.255 745.812C958.747 745.812 992.372 751.238 992.372 757.827Z" fill="#455A64"/>
<path d="M906.421 707.361C902.797 707.73 897.332 734.862 895.103 746.761C894.791 748.415 895.107 750.125 895.988 751.559C896.87 752.992 898.254 754.046 899.871 754.513C904.775 756.132 910.049 756.26 915.026 754.881C916.668 754.405 918.067 753.319 918.935 751.845C919.803 750.372 920.076 748.623 919.696 746.955C916.906 735.23 910.065 706.993 906.421 707.361Z" fill="#455A64"/>
<path d="M922.72 723.873C920.317 724.125 916.673 742.148 915.181 750.075C914.983 751.172 915.198 752.304 915.785 753.252C916.372 754.2 917.289 754.898 918.359 755.211C921.622 756.278 925.128 756.359 928.437 755.443C929.529 755.126 930.458 754.403 931.034 753.423C931.61 752.443 931.791 751.28 931.538 750.172C929.774 742.4 925.181 723.621 922.72 723.873Z" fill="#455A64"/>
<path d="M892.274 727.982C889.619 728.234 885.588 746.18 883.96 754.067C883.776 755.205 884.038 756.37 884.691 757.319C885.345 758.269 886.339 758.929 887.467 759.164C891.08 760.242 894.915 760.329 898.572 759.416C899.723 759.174 900.731 758.485 901.374 757.5C902.017 756.515 902.243 755.315 902.002 754.164C900.026 746.451 894.929 727.769 892.274 727.982Z" fill="#263238"/>
<path d="M918.165 745.831C916.596 745.966 914.289 756.509 913.282 761.122C913.172 761.79 913.325 762.476 913.707 763.035C914.09 763.594 914.673 763.985 915.336 764.125C917.461 764.761 919.718 764.808 921.867 764.261C922.532 764.109 923.11 763.699 923.473 763.121C923.836 762.543 923.956 761.845 923.805 761.18C922.72 756.645 919.716 745.676 918.165 745.831Z" fill="#263238"/>
<path d="M935.026 732.982C932.914 733.156 929.735 745.714 928.437 751.238C928.383 751.654 928.411 752.077 928.522 752.482C928.632 752.888 928.821 753.267 929.079 753.599C929.337 753.93 929.657 754.207 930.023 754.414C930.388 754.621 930.791 754.753 931.208 754.804C934.094 755.547 937.113 755.607 940.026 754.978C940.453 754.93 940.865 754.794 941.236 754.579C941.608 754.364 941.931 754.074 942.186 753.729C942.44 753.383 942.621 752.989 942.716 752.57C942.811 752.151 942.819 751.718 942.739 751.296C941.15 745.889 937.138 732.807 935.026 732.982Z" fill="#455A64"/>
<g opacity="0.3">
<path d="M935.026 732.982C932.914 733.156 929.735 745.714 928.437 751.238C928.383 751.654 928.411 752.077 928.522 752.482C928.632 752.888 928.821 753.267 929.079 753.599C929.337 753.93 929.657 754.207 930.023 754.414C930.388 754.621 930.791 754.753 931.208 754.804C934.094 755.547 937.113 755.607 940.026 754.978C940.453 754.93 940.865 754.794 941.236 754.579C941.608 754.364 941.931 754.074 942.186 753.729C942.44 753.383 942.621 752.989 942.716 752.57C942.811 752.151 942.819 751.718 942.739 751.296C941.15 745.889 937.138 732.807 935.026 732.982Z" fill="black"/>
</g>
<path d="M955.957 726.49C953.185 726.722 948.98 743.273 947.274 750.54C947.201 751.091 947.238 751.65 947.383 752.186C947.528 752.722 947.779 753.224 948.12 753.662C948.46 754.1 948.885 754.466 949.369 754.739C949.853 755.011 950.386 755.185 950.937 755.25C954.741 756.243 958.727 756.316 962.565 755.463C963.126 755.403 963.669 755.228 964.158 754.948C964.648 754.667 965.074 754.288 965.409 753.834C965.745 753.381 965.982 752.862 966.106 752.312C966.231 751.761 966.239 751.191 966.131 750.637C964.038 743.486 958.747 726.277 955.957 726.49Z" fill="#455A64"/>
<g opacity="0.3">
<path d="M955.957 726.49C953.185 726.722 948.98 743.273 947.274 750.54C947.201 751.091 947.238 751.65 947.383 752.186C947.528 752.722 947.779 753.224 948.12 753.662C948.46 754.1 948.885 754.466 949.369 754.739C949.853 755.011 950.386 755.185 950.937 755.25C954.741 756.243 958.727 756.316 962.565 755.463C963.126 755.403 963.669 755.228 964.158 754.948C964.648 754.667 965.074 754.288 965.409 753.834C965.745 753.381 965.982 752.862 966.106 752.312C966.231 751.761 966.239 751.191 966.131 750.637C964.038 743.486 958.747 726.277 955.957 726.49Z" fill="black"/>
</g>
<path d="M329.033 965.212C329.033 973.701 289.827 980.581 241.474 980.581C193.121 980.581 153.935 973.701 153.935 965.212C153.935 964.166 154.148 956.782 154.148 956.782C162.229 949.767 199.09 949.844 241.474 949.844C283.412 949.844 320.564 947.906 328.858 956.957C329.033 957.131 329.033 964.088 329.033 965.212Z" fill="#263238"/>
<path d="M241.474 970.522C289.821 970.522 329.013 964.258 329.013 956.53C329.013 948.802 289.821 942.538 241.474 942.538C193.127 942.538 153.935 948.802 153.935 956.53C153.935 964.258 193.127 970.522 241.474 970.522Z" fill="#455A64"/>
<path d="M228.916 897.712C224.691 898.138 218.296 929.766 215.699 943.642C215.349 945.548 215.712 947.516 216.72 949.171C217.728 950.826 219.31 952.052 221.164 952.615C226.881 954.51 233.033 954.665 238.839 953.061C240.764 952.516 242.404 951.247 243.415 949.521C244.426 947.794 244.731 945.743 244.265 943.797C241.164 930.192 233.102 897.285 228.916 897.712Z" fill="#455A64"/>
<path d="M247.908 916.956C245.079 917.247 240.835 938.274 239.11 947.499C238.881 948.775 239.133 950.091 239.816 951.193C240.499 952.295 241.566 953.105 242.811 953.468C246.611 954.723 250.698 954.824 254.556 953.759C255.831 953.387 256.917 952.542 257.59 951.396C258.264 950.251 258.475 948.891 258.18 947.596C256.048 938.545 250.718 916.665 247.908 916.956Z" fill="#455A64"/>
<path d="M212.365 921.782C209.264 922.072 204.613 943.003 202.675 952.189C202.457 953.517 202.761 954.877 203.523 955.986C204.285 957.095 205.447 957.866 206.764 958.139C210.984 959.389 215.462 959.483 219.73 958.41C221.053 958.114 222.204 957.304 222.931 956.16C223.658 955.015 223.9 953.629 223.606 952.305C221.396 943.274 215.466 921.491 212.365 921.782Z" fill="#263238"/>
<path d="M242.482 942.538C240.66 942.693 237.908 954.98 236.784 960.368C236.663 961.146 236.844 961.941 237.291 962.59C237.738 963.239 238.416 963.692 239.187 963.856C241.657 964.599 244.282 964.659 246.784 964.03C247.564 963.884 248.255 963.435 248.705 962.782C249.155 962.128 249.329 961.323 249.187 960.542C247.83 955.154 244.42 942.363 242.482 942.538Z" fill="#263238"/>
<path d="M262.191 927.596C259.73 927.79 256.029 942.422 254.439 948.914C254.374 949.401 254.407 949.895 254.535 950.369C254.663 950.843 254.884 951.287 255.185 951.675C255.486 952.063 255.862 952.387 256.289 952.628C256.717 952.869 257.188 953.023 257.676 953.081C261.036 953.957 264.556 954.024 267.947 953.274C268.444 953.219 268.924 953.062 269.357 952.812C269.79 952.562 270.167 952.226 270.463 951.824C270.76 951.421 270.97 950.962 271.081 950.475C271.191 949.987 271.2 949.482 271.106 948.991C269.343 942.615 264.653 927.363 262.191 927.596Z" fill="#455A64"/>
<g opacity="0.3">
<path d="M262.191 927.596C259.73 927.79 256.029 942.422 254.439 948.914C254.374 949.401 254.407 949.895 254.535 950.369C254.663 950.843 254.884 951.287 255.185 951.675C255.486 952.063 255.862 952.387 256.289 952.628C256.717 952.869 257.188 953.023 257.676 953.081C261.036 953.957 264.556 954.024 267.947 953.274C268.444 953.219 268.924 953.062 269.357 952.812C269.79 952.562 270.167 952.226 270.463 951.824C270.76 951.421 270.97 950.962 271.081 950.475C271.191 949.987 271.2 949.482 271.106 948.991C269.343 942.615 264.653 927.363 262.191 927.596Z" fill="black"/>
</g>
<path d="M286.591 920.018C283.354 920.27 278.471 939.573 276.474 948.042C275.912 950.464 277.773 952.809 280.738 953.507C285.174 954.675 289.825 954.768 294.304 953.778C297.347 953.042 299.188 950.6 298.471 948.139C296.01 939.825 289.827 919.844 286.591 920.018Z" fill="#455A64"/>
<g opacity="0.3">
<path d="M286.591 920.018C283.354 920.27 278.471 939.573 276.474 948.042C275.912 950.464 277.773 952.809 280.738 953.507C285.174 954.675 289.825 954.768 294.304 953.778C297.347 953.042 299.188 950.6 298.471 948.139C296.01 939.825 289.827 919.844 286.591 920.018Z" fill="black"/>
</g>
<path d="M836.673 390.111L789.754 395.208V402.708C789.754 402.708 808.921 403.522 817.138 417.205H856.227C864.425 403.522 883.611 402.708 883.611 402.708V395.208L836.673 390.111Z" fill="#E0E0E0"/>
<g opacity="0.3">
<path d="M836.673 390.111L789.754 395.208V402.708C789.754 402.708 808.921 403.522 817.138 417.205H856.227C864.425 403.522 883.611 402.708 883.611 402.708V395.208L836.673 390.111Z" fill="black"/>
</g>
<path d="M777.448 395.208H895.317L873.573 379.743H799.773L777.448 395.208Z" fill="#E0E0E0"/>
<path d="M822.661 367.185C814.347 369.239 804.463 372.999 799.773 379.743H873.573C873.573 379.743 868.495 371.196 852.506 367.029C842.701 364.59 832.441 364.643 822.661 367.185Z" fill="#E0E0E0"/>
<path d="M907.643 400.983H765.49V404.414H907.643V400.983Z" fill="#E0E0E0"/>
<path d="M869.755 417.205H804.773V420.635H869.755V417.205Z" fill="#E0E0E0"/>
<path d="M819.405 420.654L829.793 431.061H843.262L854.231 420.654H819.405Z" fill="#E0E0E0"/>
<path d="M837.022 305.343C837.313 305.343 837.526 318.696 837.526 335.15C837.526 351.603 837.313 364.976 837.022 364.976C836.731 364.976 836.518 351.623 836.518 335.15C836.518 318.677 836.751 305.343 837.022 305.343Z" fill="#263238"/>
<path d="M819.405 778.176C819.405 778.176 826.808 524.298 827.816 508.523C828.824 492.748 830.142 427.127 830.142 427.127H837.894L838.688 778.273L819.405 778.176Z" fill="#E0E0E0"/>
<path d="M856.634 778.176C856.634 778.176 846.518 524.298 845.51 508.523C844.502 492.748 843.185 427.127 843.185 427.127H835.433L837.448 778.37L856.634 778.176Z" fill="#E0E0E0"/>
<path d="M873.437 379.452C873.437 379.724 856.945 379.995 836.615 380.034C816.285 380.072 799.793 379.879 799.793 379.607C799.793 379.336 816.285 379.065 836.615 379.026C856.945 378.987 873.437 379.142 873.437 379.452Z" fill="#263238"/>
<path d="M841.46 300.924C841.46 300.924 841.344 300.537 841.13 299.897C840.833 299.003 840.256 298.228 839.483 297.688C838.93 297.289 838.284 297.035 837.607 296.95C836.93 296.866 836.242 296.953 835.607 297.203C834.849 297.487 834.196 297.995 833.735 298.66C833.274 299.325 833.027 300.115 833.027 300.924C833.027 301.734 833.274 302.524 833.735 303.188C834.196 303.853 834.849 304.362 835.607 304.645C836.242 304.896 836.93 304.983 837.607 304.898C838.284 304.814 838.93 304.56 839.483 304.161C840.256 303.621 840.833 302.846 841.13 301.952C841.344 301.312 841.382 300.924 841.46 300.924C841.537 300.924 841.615 301.312 841.46 302.048C841.289 303.105 840.729 304.059 839.89 304.723C839.259 305.234 838.507 305.575 837.707 305.714C836.906 305.853 836.083 305.786 835.316 305.517C834.363 305.185 833.537 304.564 832.953 303.741C832.368 302.918 832.054 301.934 832.054 300.924C832.054 299.915 832.368 298.93 832.953 298.107C833.537 297.284 834.363 296.664 835.316 296.331C836.083 296.063 836.906 295.995 837.707 296.134C838.507 296.273 839.259 296.615 839.89 297.126C840.729 297.79 841.289 298.744 841.46 299.8C841.615 300.537 841.518 300.924 841.46 300.924Z" fill="#263238"/>
<path d="M861.073 376.351H802.7C803.694 375.4 804.801 374.574 805.995 373.89L861.073 373.619V376.351Z" fill="#C69749"/>
<path d="M888.127 390.111C887.38 390.257 886.62 390.322 885.859 390.305L879.658 390.46C874.425 390.46 867.196 390.615 859.212 390.615H845.336H845.2L845.084 390.499C841.789 387.418 839.076 384.821 837.177 382.979C836.136 382.062 835.177 381.057 834.309 379.976C835.451 380.758 836.527 381.633 837.526 382.592C839.464 384.336 842.332 386.836 845.685 389.859L845.375 389.743H859.251C867.235 389.743 874.464 389.743 879.697 389.898L885.898 390.053C886.64 389.975 887.39 389.994 888.127 390.111Z" fill="#263238"/>
<path d="M869.968 420.712C869.968 420.984 855.336 421.216 837.274 421.216C819.212 421.216 804.56 420.984 804.56 420.712C804.56 420.441 819.212 420.208 837.274 420.208C855.336 420.208 869.968 420.422 869.968 420.712Z" fill="#263238"/>
<path d="M869.968 416.991C869.968 417.262 855.336 417.495 837.274 417.495C819.212 417.495 804.56 417.262 804.56 416.991C804.56 416.72 819.212 416.468 837.274 416.468C855.336 416.468 869.968 416.7 869.968 416.991Z" fill="#263238"/>
<path d="M856.634 778.176C856.634 778.176 856.634 777.575 856.518 776.393C856.402 775.211 856.382 773.447 856.266 771.161C856.072 766.509 855.762 759.726 855.394 750.986C854.677 733.428 853.65 708.079 852.371 676.703C849.909 613.911 846.557 527.07 842.681 430.809L843.01 431.274C841 430.482 838.852 430.1 836.692 430.15C834.339 430.181 832.019 430.716 829.89 431.72L830.181 431.294C827.254 527.457 824.619 614.183 822.719 676.877C821.712 708.195 820.898 733.525 820.336 751.025C820.045 759.765 819.812 766.529 819.657 771.161C819.56 773.447 819.502 775.192 819.444 776.393C819.386 777.595 819.347 778.176 819.347 778.176C819.347 778.176 819.347 777.575 819.347 776.393C819.347 775.211 819.347 773.447 819.444 771.161C819.56 766.529 819.735 759.746 819.948 751.025C820.432 733.583 821.13 708.176 822.002 676.858C823.824 614.163 826.363 527.438 829.173 431.255V430.945L829.444 430.809C831.615 429.797 833.968 429.233 836.362 429.15C838.756 429.067 841.142 429.466 843.378 430.325L843.688 430.441V430.77C847.351 527.031 850.646 613.873 853.01 676.664C854.154 708.04 855.084 733.408 855.723 750.967C856.014 759.707 856.247 766.471 856.402 771.141C856.402 773.428 856.518 775.192 856.557 776.393C856.595 777.595 856.634 778.176 856.634 778.176Z" fill="#263238"/>
<path d="M509.984 254.529L450.895 215.226V349.626L501.922 306.68L509.984 254.529Z" fill="#E0E0E0"/>
<path d="M459.906 222.436C460.197 222.436 460.41 245.11 460.41 273.075C460.41 301.041 460.197 323.715 459.906 323.715C459.616 323.715 459.403 301.041 459.403 273.075C459.403 245.11 459.635 222.436 459.906 222.436Z" fill="#263238"/>
<path d="M471.922 230.304C472.193 230.304 472.426 252.978 472.426 280.944C472.426 308.909 472.193 331.603 471.922 331.603C471.651 331.603 471.418 308.928 471.418 280.944C471.418 252.959 471.651 230.304 471.922 230.304Z" fill="#263238"/>
<path d="M484.035 236.486C484.306 236.486 484.539 259.16 484.539 287.126C484.539 315.091 484.306 337.766 484.035 337.766C483.763 337.766 483.531 315.091 483.531 287.126C483.531 259.16 483.763 236.486 484.035 236.486Z" fill="#263238"/>
<path d="M496.147 244.567C496.418 244.567 496.651 266.816 496.651 294.258C496.651 321.7 496.418 343.948 496.147 343.948C495.876 343.948 495.643 321.7 495.643 294.258C495.643 266.816 495.856 244.567 496.147 244.567Z" fill="#263238"/>
<path d="M527.136 223.928C523.008 223.928 425.991 309.432 434.247 485.151V834.223H527.136V223.928Z" fill="#C69749"/>
<path d="M450.003 725.172C449.732 725.172 449.499 642.633 449.499 540.849C449.499 439.065 449.732 356.487 450.003 356.487C450.274 356.487 450.507 439.007 450.507 540.849C450.507 642.691 450.274 725.172 450.003 725.172Z" fill="#263238"/>
<g opacity="0.3">
<path d="M527.136 423.91C523.492 424.201 476.011 468.29 476.011 468.29V743.118H527.136V423.91Z" fill="black"/>
</g>
<path d="M496.147 712.11C495.856 712.11 495.643 653.447 495.643 581.082C495.643 508.717 495.856 450.015 496.147 450.015C496.438 450.015 496.651 508.678 496.651 581.082C496.651 653.485 496.36 712.11 496.147 712.11Z" fill="#263238"/>
<path d="M507.736 701.412C507.446 701.412 507.232 642.749 507.232 570.384C507.232 498.019 507.446 439.317 507.736 439.317C508.027 439.317 508.24 497.98 508.24 570.384C508.24 642.787 507.988 701.412 507.736 701.412Z" fill="#263238"/>
<path d="M519.325 690.714C519.035 690.714 518.822 632.245 518.822 560.132C518.822 488.019 519.035 429.511 519.325 429.511C519.616 429.511 519.829 487.98 519.829 560.132C519.829 632.284 519.616 690.714 519.325 690.714Z" fill="#263238"/>
<path d="M527.136 372.96H485.817V378.173H527.136V372.96Z" fill="#455A64"/>
<path d="M527.136 384.375H485.817V389.045H527.136V384.375Z" fill="#455A64"/>
<path d="M527.136 395.925H485.817V400.596H527.136V395.925Z" fill="#455A64"/>
<path d="M482.116 384.375H476.515V389.045H482.116V384.375Z" fill="#455A64"/>
<path d="M473.414 384.375H467.813V389.045H473.414V384.375Z" fill="#455A64"/>
<path d="M512.097 238.385C512.254 239.463 512.319 240.552 512.29 241.641C512.29 243.889 512.387 246.893 512.446 250.498C512.446 257.978 512.601 268.308 512.601 279.723C512.601 288.25 512.601 296.157 512.601 302.804L512.174 302.378H519.674H520.74V303.037H519.616V302.417H520.527H523.182L526.864 302.533C527.308 302.522 527.75 302.567 528.182 302.669C527.748 302.756 527.306 302.795 526.864 302.785L523.182 302.901H520.527H519.616V302.281H520.76V302.94H519.616H512.116H511.69V302.514C511.69 295.866 511.69 287.959 511.69 279.432C511.69 268.017 511.69 257.688 511.825 250.207C511.825 246.602 511.961 243.598 512 241.35C511.955 240.361 511.987 239.37 512.097 238.385Z" fill="#263238"/>
<path d="M527.136 310.033H513.163V315.324H527.136V310.033Z" fill="#455A64"/>
<path d="M484.558 722.807C484.287 722.807 484.054 664.144 484.054 591.779C484.054 519.414 484.287 460.712 484.558 460.712C484.829 460.712 485.062 519.376 485.062 591.779C485.062 664.183 484.829 722.807 484.558 722.807Z" fill="#263238"/>
<path d="M739.734 336.273C736.343 336.273 656.827 406.371 663.59 550.422V836.607H739.734V336.273Z" fill="#E0E0E0"/>
<path d="M676.594 747.207C676.323 747.207 676.09 679.532 676.09 596.043C676.09 512.554 676.323 444.879 676.594 444.879C676.866 444.879 677.098 512.535 677.098 596.043C677.098 679.551 676.769 747.207 676.594 747.207Z" fill="#263238"/>
<path d="M739.734 500.209C736.672 500.461 697.912 536.527 697.912 536.527V761.917H739.812L739.734 500.209Z" fill="#455A64"/>
<path d="M739.734 458.445H705.858V462.709H739.734V458.445Z" fill="#455A64"/>
<path d="M739.734 467.806H705.858V471.643H739.734V467.806Z" fill="#455A64"/>
<path d="M739.734 477.282H705.858V481.119H739.734V477.282Z" fill="#455A64"/>
<path d="M702.835 467.806H698.242V471.643H702.835V467.806Z" fill="#455A64"/>
<path d="M695.683 467.806H691.09V471.643H695.683V467.806Z" fill="#455A64"/>
<path d="M727.409 348.134C727.554 349.018 727.619 349.913 727.602 350.809C727.602 352.747 727.699 355.15 727.757 358.076C727.854 364.2 727.912 372.669 727.912 382.03C727.912 389.007 727.912 395.48 727.816 400.945L727.409 400.538H733.552H734.424V401.177H733.494V400.557H734.23H736.401C737.774 400.539 739.147 400.617 740.509 400.79C739.149 400.989 737.775 401.074 736.401 401.042H734.23H733.494V400.422H734.424V401.061H733.552H727.409H726.982V400.635C726.982 395.17 726.982 388.697 726.982 381.72C726.982 372.359 726.982 363.89 727.118 357.766C727.118 354.84 727.234 352.398 727.292 350.499C727.258 349.709 727.297 348.917 727.409 348.134Z" fill="#263238"/>
<path d="M739.734 406.855H728.281V411.197H739.734V406.855Z" fill="#455A64"/>
<path d="M597.272 356.816C597.543 356.816 597.776 368.057 597.776 382.01C597.776 395.964 597.543 407.088 597.272 407.088C597.001 407.088 596.768 395.867 596.768 382.01C596.768 368.154 596.981 356.816 597.272 356.816Z" fill="#263238"/>
<path d="M610.935 291.118C611.226 291.118 611.439 317.087 611.439 349.103C611.439 381.119 611.226 407.107 610.935 407.107C610.644 407.107 610.431 381.158 610.431 349.103C610.431 317.049 610.702 291.118 610.935 291.118Z" fill="#263238"/>
<path d="M631.071 404.104H583.57V847.247H631.071V404.104Z" fill="#E0E0E0"/>
<path d="M631.09 809.669H599.5V460.577L631.09 435.402V809.669Z" fill="#263238"/>
<path d="M629.908 484.899C624.833 485.397 619.732 485.566 614.636 485.403C609.54 485.566 604.439 485.397 599.365 484.899C604.438 484.388 609.54 484.22 614.636 484.395C619.732 484.22 624.834 484.388 629.908 484.899Z" fill="#455A64"/>
<path d="M629.908 526.101C624.833 526.599 619.732 526.768 614.636 526.605C609.54 526.768 604.439 526.599 599.365 526.101C604.439 525.602 609.54 525.434 614.636 525.597C619.732 525.434 624.833 525.602 629.908 526.101Z" fill="#455A64"/>
<path d="M629.908 567.302C624.834 567.813 619.732 567.981 614.636 567.806C609.54 567.981 604.438 567.813 599.365 567.302C604.439 566.804 609.54 566.635 614.636 566.798C619.732 566.635 624.833 566.804 629.908 567.302Z" fill="#455A64"/>
<path d="M629.908 608.505C624.835 609.028 619.733 609.202 614.636 609.028C609.54 609.202 604.437 609.028 599.365 608.505C604.439 608.006 609.54 607.838 614.636 608.001C619.732 607.838 624.833 608.006 629.908 608.505Z" fill="#455A64"/>
<path d="M629.908 649.725C624.833 650.224 619.732 650.392 614.636 650.229C609.54 650.392 604.439 650.224 599.365 649.725C604.438 649.215 609.54 649.047 614.636 649.222C619.732 649.047 624.834 649.215 629.908 649.725Z" fill="#455A64"/>
<path d="M629.908 690.927C624.833 691.426 619.732 691.594 614.636 691.431C609.54 691.594 604.439 691.426 599.365 690.927C604.439 690.429 609.54 690.26 614.636 690.423C619.732 690.26 624.833 690.429 629.908 690.927Z" fill="#455A64"/>
<path d="M629.908 732.13C624.834 732.64 619.732 732.808 614.636 732.633C609.54 732.808 604.438 732.64 599.365 732.13C604.439 731.631 609.54 731.463 614.636 731.626C619.732 731.463 624.833 731.631 629.908 732.13Z" fill="#455A64"/>
<path d="M629.908 773.331C624.834 773.841 619.732 774.01 614.636 773.835C609.54 774.01 604.438 773.841 599.365 773.331C604.439 772.833 609.54 772.664 614.636 772.827C619.732 772.664 624.833 772.833 629.908 773.331Z" fill="#455A64"/>
<path d="M615.315 288.056C615.315 288.056 615.198 287.669 614.985 287.048C614.684 286.172 614.123 285.408 613.377 284.859C612.832 284.48 612.203 284.24 611.545 284.159C610.886 284.078 610.218 284.159 609.598 284.393C608.829 284.653 608.161 285.147 607.688 285.805C607.215 286.464 606.961 287.255 606.961 288.066C606.961 288.877 607.215 289.668 607.688 290.326C608.161 290.985 608.829 291.479 609.598 291.738C610.219 291.976 610.889 292.055 611.548 291.971C612.207 291.886 612.836 291.64 613.377 291.254C614.125 290.715 614.688 289.956 614.985 289.083C615.198 288.463 615.237 288.056 615.315 288.056C615.392 288.056 615.489 288.463 615.315 289.18C615.126 290.225 614.569 291.166 613.745 291.835C613.121 292.338 612.378 292.673 611.588 292.809C610.798 292.945 609.986 292.876 609.229 292.611C608.283 292.285 607.462 291.672 606.881 290.857C606.3 290.043 605.987 289.067 605.987 288.066C605.987 287.065 606.3 286.089 606.881 285.275C607.462 284.46 608.283 283.847 609.229 283.521C609.986 283.255 610.798 283.187 611.588 283.323C612.378 283.458 613.121 283.794 613.745 284.297C614.569 284.965 615.126 285.907 615.315 286.952C615.489 287.707 615.373 288.056 615.315 288.056Z" fill="#263238"/>
<path d="M948.689 859.166C948.689 872.538 764.076 883.391 536.322 883.391C308.568 883.391 123.954 872.538 123.954 859.166C123.954 857.518 125.02 845.871 125.02 845.871C163.063 834.785 336.669 834.921 536.322 834.921C733.843 834.921 908.805 831.801 947.934 846.142C948.689 846.413 948.689 857.383 948.689 859.166Z" fill="#263238"/>
<path d="M536.322 871.84C764.066 871.84 948.689 860.994 948.689 847.615C948.689 834.236 764.066 823.39 536.322 823.39C308.577 823.39 123.954 834.236 123.954 847.615C123.954 860.994 308.577 871.84 536.322 871.84Z" fill="#455A64"/>
<path d="M206.358 566.023L165.815 570.442V576.915C165.815 576.915 182.385 577.613 189.478 589.454H223.238C230.35 577.613 246.901 576.915 246.901 576.915V570.442L206.358 566.023Z" fill="#E0E0E0"/>
<g opacity="0.3">
<path d="M206.358 566.023L165.815 570.442V576.915C165.815 576.915 182.385 577.613 189.478 589.454H223.238C230.35 577.613 246.901 576.915 246.901 576.915V570.442L206.358 566.023Z" fill="black"/>
</g>
<path d="M155.195 570.442H257.017L238.238 557.07H174.478L155.195 570.442Z" fill="#E0E0E0"/>
<path d="M194.245 546.217C187.075 548 178.547 551.256 174.478 557.07H238.238C238.238 557.07 233.858 549.686 220.04 546.101C211.565 543.998 202.7 544.038 194.245 546.217Z" fill="#E0E0E0"/>
<path d="M267.676 575.423H144.884V578.388H267.676V575.423Z" fill="#E0E0E0"/>
<path d="M234.963 589.454H178.819V592.419H234.963V589.454Z" fill="#E0E0E0"/>
<path d="M191.435 592.419L200.427 601.411H212.055L221.532 592.419H191.435Z" fill="#E0E0E0"/>
<path d="M206.668 492.806C206.959 492.806 207.172 504.337 207.172 518.562C207.172 532.787 206.959 544.318 206.668 544.318C206.377 544.318 206.164 532.787 206.164 518.562C206.164 504.337 206.397 492.806 206.668 492.806Z" fill="#263238"/>
<path d="M191.435 849.34C191.435 849.34 197.83 681.935 198.722 668.331C199.613 654.726 200.66 597.942 200.66 597.942H207.385L208.063 849.359L191.435 849.34Z" fill="#E0E0E0"/>
<path d="M223.606 849.34C223.606 849.34 214.866 681.935 213.916 668.331C212.967 654.726 211.978 597.942 211.978 597.942H205.253L206.998 849.359L223.606 849.34Z" fill="#E0E0E0"/>
<path d="M238.121 556.818C238.121 557.109 223.877 557.361 206.3 557.399C188.722 557.438 174.478 557.244 174.478 556.954C174.478 556.663 188.722 556.43 206.3 556.392C223.877 556.353 238.121 556.547 238.121 556.818Z" fill="#263238"/>
<path d="M210.486 488.988C210.226 487.907 209.621 486.941 208.761 486.236C208.297 485.907 207.759 485.697 207.194 485.626C206.629 485.555 206.056 485.625 205.525 485.829C204.889 486.078 204.343 486.512 203.958 487.075C203.573 487.639 203.367 488.306 203.367 488.988C203.367 489.671 203.573 490.337 203.958 490.901C204.343 491.464 204.889 491.899 205.525 492.147C206.056 492.351 206.629 492.421 207.194 492.35C207.759 492.279 208.297 492.07 208.761 491.74C209.621 491.035 210.226 490.069 210.486 488.988C210.486 488.988 210.66 489.337 210.486 489.976C210.326 490.889 209.845 491.714 209.129 492.302C208.582 492.755 207.927 493.059 207.227 493.185C206.528 493.31 205.808 493.253 205.137 493.019C204.298 492.73 203.57 492.186 203.055 491.464C202.539 490.741 202.262 489.876 202.262 488.988C202.262 488.101 202.539 487.235 203.055 486.513C203.57 485.79 204.298 485.246 205.137 484.957C205.807 484.724 206.525 484.666 207.224 484.788C207.922 484.91 208.578 485.208 209.129 485.655C209.849 486.248 210.33 487.08 210.486 488C210.66 488.639 210.544 488.988 210.486 488.988Z" fill="#263238"/>
<path d="M227.443 554.143H177.055C177.919 553.325 178.875 552.61 179.904 552.012L227.482 551.798L227.443 554.143Z" fill="#C69749"/>
<path d="M250.816 566.023C250.182 566.178 249.53 566.243 248.878 566.217L243.509 566.392C238.994 566.392 232.754 566.527 225.854 566.527H213.877H213.703L213.567 566.411C210.738 563.737 208.393 561.488 206.765 559.88C205.85 559.102 205.025 558.224 204.304 557.264C205.294 557.884 206.228 558.591 207.094 559.376C208.819 560.868 211.261 563.02 214.149 565.616L213.858 565.5H225.835C232.734 565.5 238.975 565.5 243.49 565.655C245.758 565.655 247.599 565.752 248.858 565.81C249.517 565.801 250.174 565.873 250.816 566.023Z" fill="#263238"/>
<path d="M235.137 592.458C235.137 592.749 222.482 592.962 206.881 592.962C191.28 592.962 178.625 592.749 178.625 592.458C178.625 592.167 191.28 591.954 206.881 591.954C222.482 591.954 235.137 592.187 235.137 592.458Z" fill="#263238"/>
<path d="M235.137 589.241C235.137 589.531 222.482 589.745 206.881 589.745C191.28 589.745 178.625 589.531 178.625 589.241C178.625 588.95 191.28 588.737 206.881 588.737C222.482 588.737 235.137 588.969 235.137 589.241Z" fill="#263238"/>
<path d="M212.036 601.179C211.939 601.469 209.401 600.559 206.222 600.694C203.044 600.83 200.524 601.857 200.408 601.586C202.04 600.243 204.111 599.553 206.222 599.648C208.282 599.439 210.347 599.983 212.036 601.179Z" fill="#263238"/>
<path d="M344.44 720.56L434.267 694.978L434.034 713.098L344.44 741.839V722.808" fill="#455A64"/>
<path d="M276.979 840.91H427.988L434.267 708.195L338.413 735.792L235.893 778.816L228.645 798.351L276.979 840.91Z" fill="#263238"/>
<path d="M289.265 858.274C289.265 858.274 209.342 850.813 207.869 849.534C206.396 848.255 206.203 798.351 206.203 798.351L250.777 825.793L289.265 858.274Z" fill="#263238"/>
<path d="M336.339 850.076C336.339 850.076 269.11 828.855 244.556 800.987C244.556 800.987 231.862 786.025 258.122 773.389C278.819 763.428 376.902 730.87 376.902 730.87V711.238C376.902 711.238 243.916 745.54 212.404 781.781C200.389 795.58 206.59 808.777 213.78 816.277C241.61 845.502 289.207 858.235 289.207 858.235L336.339 850.076Z" fill="#455A64"/>
<path d="M542.756 460.538L423.24 556.159V591.179H447.736C479.79 592.051 514.015 622.865 514.015 664.106C514.015 702.691 485.256 733.098 447.736 737.052H423.24V839.921L542.756 840.871C543.454 838.778 567.698 519.163 567.601 460.538H542.756Z" fill="#E0E0E0"/>
<g opacity="0.3">
<path d="M542.756 460.538L423.24 556.159V591.179H447.736C479.79 592.051 514.015 622.865 514.015 664.106C514.015 702.691 485.256 733.098 447.736 737.052H423.24V839.921L542.756 840.871C543.454 838.778 567.698 519.163 567.601 460.538H542.756Z" fill="black"/>
</g>
<path d="M463.821 738.854C474.327 738.874 484.718 736.677 494.317 732.409C503.916 728.14 512.507 721.895 519.529 714.081C526.551 706.267 531.846 697.06 535.068 687.061C538.29 677.062 539.368 666.496 538.23 656.053C537.092 645.609 533.765 635.523 528.464 626.452C523.164 617.382 516.011 609.531 507.471 603.413C498.931 597.295 489.197 593.046 478.904 590.945C468.611 588.843 457.991 588.936 447.736 591.217V556.198L567.252 460.538C567.252 460.538 568.027 838.448 567.252 840.871L447.736 839.921V737.091C453.018 738.261 458.411 738.852 463.821 738.854Z" fill="#E0E0E0"/>
<path d="M520.294 478.503C520.294 478.503 520.818 478.503 521.884 478.503H526.574L544.791 478.387H545.023V478.639C545.023 510.849 545.178 574.434 545.295 647.497C545.295 700.87 545.178 749.203 545.14 784.223C545.14 801.665 545.023 815.851 544.985 825.677C544.985 830.522 544.985 834.32 544.888 836.937C544.888 834.32 544.888 830.522 544.888 825.677C544.888 815.851 544.888 801.704 544.713 784.223C544.713 749.203 544.713 700.889 544.578 647.497C544.674 574.434 544.791 510.849 544.829 478.639L545.081 478.872L526.864 478.755H522.174C520.818 478.542 520.294 478.503 520.294 478.503Z" fill="#263238"/>
<path d="M567.446 573.504C567.446 573.776 535.159 574.008 495.333 574.008C455.507 574.008 423.24 573.776 423.24 573.504C423.24 573.233 455.507 572.981 495.333 572.981C535.159 572.981 567.446 573.214 567.446 573.504Z" fill="#263238"/>
<path d="M510.333 790.173H530.217V788.177H510.333V790.173Z" fill="#263238"/>
<path d="M510.333 794.533H530.217V792.537H510.333V794.533Z" fill="#263238"/>
<path d="M510.333 798.913H530.217V796.917H510.333V798.913Z" fill="#263238"/>
<path d="M510.333 803.293H530.217V801.297H510.333V803.293Z" fill="#263238"/>
<path d="M510.333 807.498H530.217V805.502H510.333V807.498Z" fill="#263238"/>
<path d="M510.333 811.859H530.217V809.863H510.333V811.859Z" fill="#263238"/>
<path d="M510.333 816.239H530.217V814.243H510.333V816.239Z" fill="#263238"/>
<path d="M510.333 820.619H530.217V818.623H510.333V820.619Z" fill="#263238"/>
<path d="M510.333 583.775H530.217V581.779H510.333V583.775Z" fill="#263238"/>
<path d="M510.333 588.155H530.217V586.159H510.333V588.155Z" fill="#263238"/>
<path d="M510.333 592.516H530.217V590.52H510.333V592.516Z" fill="#263238"/>
<path d="M510.333 596.896H530.217V594.9H510.333V596.896Z" fill="#263238"/>
<path d="M423.259 559.57H481.418V556.14H423.259V559.57Z" fill="#455A64"/>
<path d="M447.174 736.722C443.203 737.233 439.196 737.402 435.197 737.226C431.204 737.401 427.204 737.233 423.24 736.722C427.205 736.224 431.204 736.055 435.197 736.219C439.196 736.055 443.202 736.224 447.174 736.722Z" fill="#263238"/>
<path d="M567.601 612.303H556.283V617.826H567.601V612.303Z" fill="#455A64"/>
<path d="M567.601 629.88H556.283V635.404H567.601V629.88Z" fill="#455A64"/>
<path d="M567.601 647.458H556.283V652.981H567.601V647.458Z" fill="#455A64"/>
<path d="M567.601 665.036H556.283V670.559H567.601V665.036Z" fill="#455A64"/>
<path d="M567.601 682.594H556.283V688.118H567.601V682.594Z" fill="#455A64"/>
<path d="M567.601 700.172H556.283V705.695H567.601V700.172Z" fill="#455A64"/>
<path d="M567.601 717.75H556.283V723.273H567.601V717.75Z" fill="#455A64"/>
<path d="M567.601 735.327H556.283V740.85H567.601V735.327Z" fill="#455A64"/>
<path d="M567.601 752.905H556.283V758.428H567.601V752.905Z" fill="#455A64"/>
<path d="M321.572 450.519L274.653 455.635V463.116C274.653 463.116 293.82 463.949 302.037 477.631H341.107C349.324 463.949 368.491 463.116 368.491 463.116V455.635L321.572 450.519Z" fill="#E0E0E0"/>
<g opacity="0.3">
<path d="M321.572 450.519L274.653 455.635V463.116C274.653 463.116 293.82 463.949 302.037 477.631H341.107C349.324 463.949 368.491 463.116 368.491 463.116V455.635L321.572 450.519Z" fill="black"/>
</g>
<path d="M262.347 455.635H380.196L358.471 440.15H284.672L262.347 455.635Z" fill="#E0E0E0"/>
<path d="M307.56 427.592C299.246 429.666 289.362 433.406 284.672 440.15H358.471C358.471 440.15 353.394 431.623 337.405 427.456C327.6 425.02 317.343 425.067 307.56 427.592Z" fill="#E0E0E0"/>
<path d="M392.541 461.41H250.389V464.84H392.541V461.41Z" fill="#E0E0E0"/>
<path d="M354.654 477.631H289.672V481.062H354.654V477.631Z" fill="#E0E0E0"/>
<path d="M304.304 481.081L314.692 491.469H328.161L339.13 481.081H304.304Z" fill="#E0E0E0"/>
<path d="M321.94 365.77C322.231 365.77 322.444 379.123 322.444 395.576C322.444 412.03 322.231 425.383 321.94 425.383C321.65 425.383 321.437 412.049 321.437 395.576C321.437 379.103 321.65 365.77 321.94 365.77Z" fill="#263238"/>
<path d="M304.304 838.603C304.304 838.603 311.707 584.725 312.715 568.931C313.723 553.136 315.041 487.535 315.041 487.535H322.793L323.568 838.681L304.304 838.603Z" fill="#E0E0E0"/>
<path d="M341.533 838.603C341.533 838.603 331.417 584.725 330.409 568.931C329.401 553.136 328.084 487.535 328.084 487.535H320.332L322.366 838.894L341.533 838.603Z" fill="#E0E0E0"/>
<path d="M358.316 439.86C358.316 440.151 341.843 440.402 321.494 440.461C301.145 440.519 284.672 440.306 284.672 440.015C284.672 439.724 301.145 439.492 321.494 439.433C341.843 439.375 358.316 439.588 358.316 439.86Z" fill="#263238"/>
<path d="M326.359 361.351C326.262 361.351 326.242 360.944 326.029 360.305C325.726 359.418 325.149 358.652 324.382 358.115C323.828 357.715 323.183 357.462 322.506 357.377C321.828 357.292 321.141 357.379 320.506 357.63C319.748 357.914 319.095 358.422 318.634 359.087C318.172 359.752 317.925 360.542 317.925 361.351C317.925 362.16 318.172 362.95 318.634 363.615C319.095 364.28 319.748 364.789 320.506 365.072C321.141 365.323 321.828 365.41 322.506 365.325C323.183 365.241 323.828 364.987 324.382 364.588C325.151 364.044 325.727 363.27 326.029 362.378C326.242 361.739 326.262 361.351 326.359 361.351C326.456 361.351 326.514 361.739 326.359 362.475C326.179 363.528 325.621 364.479 324.789 365.15C324.157 365.661 323.406 366.002 322.605 366.141C321.805 366.28 320.982 366.212 320.215 365.944C319.262 365.612 318.436 364.991 317.851 364.168C317.267 363.345 316.953 362.361 316.953 361.351C316.953 360.342 317.267 359.357 317.851 358.534C318.436 357.711 319.262 357.09 320.215 356.758C320.982 356.49 321.805 356.422 322.605 356.561C323.406 356.7 324.157 357.041 324.789 357.553C325.621 358.223 326.179 359.174 326.359 360.227C326.47 360.594 326.47 360.985 326.359 361.351Z" fill="#263238"/>
<path d="M345.971 436.778H287.599C288.598 435.827 289.703 434.995 290.893 434.298L345.971 434.046V436.778Z" fill="#C69749"/>
<path d="M373.026 450.519C372.281 450.675 371.519 450.74 370.758 450.713L364.576 450.848C359.344 450.848 352.115 450.984 344.13 450.984H330.254H330.08L329.964 450.868C326.669 447.786 323.956 445.189 322.057 443.348C321.02 442.421 320.054 441.417 319.169 440.344C320.331 441.109 321.414 441.985 322.405 442.961C324.343 444.685 327.212 447.205 330.564 450.209L330.254 450.092H344.13C352.115 450.092 359.344 450.092 364.576 450.247L370.778 450.402C371.529 450.363 372.283 450.402 373.026 450.519Z" fill="#263238"/>
<path d="M354.886 481.12C354.886 481.41 340.235 481.623 322.192 481.623C304.149 481.623 289.479 481.41 289.479 481.12C289.479 480.829 304.13 480.616 322.192 480.616C340.254 480.616 354.886 480.848 354.886 481.12Z" fill="#263238"/>
<path d="M354.886 477.399C354.886 477.69 340.235 477.903 322.192 477.903C304.149 477.903 289.479 477.69 289.479 477.399C289.479 477.108 304.13 476.895 322.192 476.895C340.254 476.895 354.886 477.128 354.886 477.399Z" fill="#263238"/>
<path d="M341.533 838.603C341.533 838.603 341.533 838.002 341.417 836.82C341.301 835.638 341.262 833.855 341.165 831.568C340.952 826.936 340.661 820.153 340.293 811.413C339.576 793.855 338.549 768.486 337.27 737.129C334.808 674.319 331.456 587.497 327.58 491.236L327.909 491.682C325.894 490.908 323.749 490.526 321.591 490.558C319.236 490.593 316.916 491.135 314.789 492.147L315.079 491.701C312.153 587.884 309.517 674.59 307.599 737.304C306.61 768.622 305.796 793.932 305.234 811.452C304.944 820.192 304.711 826.956 304.556 831.588C304.556 833.874 304.382 835.619 304.343 836.82C304.304 838.022 304.343 838.603 304.343 838.603C304.343 838.603 304.343 838.002 304.343 836.82C304.343 835.638 304.343 833.874 304.343 831.588C304.459 826.956 304.634 820.173 304.847 811.452C305.331 794.01 306.029 768.603 306.901 737.285C308.723 674.571 311.262 587.865 314.072 491.682V491.372L314.343 491.236C316.604 490.162 319.069 489.587 321.572 489.55C323.863 489.514 326.14 489.922 328.277 490.752L328.568 490.868V491.197C332.211 587.458 335.506 674.3 337.89 737.091C339.033 768.467 339.963 793.835 340.603 811.394C340.894 820.134 341.126 826.898 341.281 831.568C341.281 833.855 341.397 835.599 341.436 836.82C341.475 838.041 341.533 838.603 341.533 838.603Z" fill="#263238"/>
<path d="M854.367 607.303L733.513 695.036V839.94H854.367C854.774 838.719 872.351 649.842 872.255 607.264L854.367 607.303ZM791.75 778.196C788.809 778.193 785.875 777.901 782.99 777.324V777.072C762.234 773.041 751.401 754.92 751.401 732.982C751.401 711.393 761.75 693.214 782.002 688.796C785.185 688.099 788.433 687.742 791.692 687.73C803.524 687.975 814.788 692.847 823.07 701.301C831.351 709.756 835.989 721.119 835.989 732.953C835.989 744.788 831.351 756.151 823.07 764.605C814.788 773.059 803.524 777.931 791.692 778.176L791.75 778.196Z" fill="#E0E0E0"/>
<g opacity="0.3">
<path d="M854.367 607.303L733.513 695.036V839.94H854.367C854.774 838.719 872.351 649.842 872.255 607.264L854.367 607.303ZM791.75 778.196C788.809 778.193 785.875 777.901 782.99 777.324V777.072C762.234 773.041 751.401 754.92 751.401 732.982C751.401 711.393 761.75 693.214 782.002 688.796C785.185 688.099 788.433 687.742 791.692 687.73C803.524 687.975 814.788 692.847 823.07 701.301C831.351 709.756 835.989 721.119 835.989 732.953C835.989 744.788 831.351 756.151 823.07 764.605C814.788 773.059 803.524 777.931 791.692 778.176L791.75 778.196Z" fill="black"/>
</g>
<path d="M872.332 607.303L751.401 695.036V839.94H872.332C872.739 838.584 872.332 607.303 872.332 607.303ZM809.715 778.196C806.78 778.191 803.853 777.899 800.975 777.323V777.071C790.8 775.082 781.621 769.646 774.986 761.68C768.351 753.713 764.665 743.703 764.549 733.336C764.433 722.969 767.894 712.879 774.349 704.765C780.804 696.652 789.859 691.012 799.987 688.796C803.17 688.098 806.418 687.741 809.677 687.73C815.694 687.605 821.676 688.683 827.272 690.9C832.868 693.116 837.965 696.427 842.264 700.639C846.564 704.851 849.98 709.878 852.312 715.427C854.644 720.976 855.846 726.934 855.846 732.953C855.846 738.972 854.644 744.93 852.312 750.479C849.98 756.028 846.564 761.055 842.264 765.267C837.965 769.478 832.868 772.79 827.272 775.006C821.676 777.223 815.694 778.301 809.677 778.176L809.715 778.196Z" fill="#E0E0E0"/>
<path d="M836.964 620.578C836.964 620.578 837.099 620.578 837.332 620.578H838.437H842.681L858.669 620.442H858.941V620.733C858.941 642.516 859.057 678.621 859.154 719.571C859.154 752.827 859.037 782.924 858.999 804.843C858.999 815.696 858.882 824.494 858.844 830.657C858.844 833.661 858.844 836.006 858.747 837.673C858.747 838.448 858.747 839.049 858.747 839.514C858.763 839.72 858.763 839.928 858.747 840.134C858.722 839.928 858.722 839.72 858.747 839.514C858.747 839.049 858.747 838.448 858.747 837.673C858.747 836.006 858.747 833.661 858.747 830.657C858.747 824.494 858.65 815.696 858.572 804.843C858.572 782.982 858.572 752.885 858.437 719.571C858.437 678.66 858.592 642.555 858.65 620.733L858.941 621.024L842.952 620.888H838.708H837.603L836.964 620.578Z" fill="#263238"/>
<path d="M758.165 678.098C758.165 677.807 783.746 677.594 815.277 677.594C846.809 677.594 872.39 677.807 872.39 678.098C872.39 678.389 846.809 678.602 815.277 678.602C783.746 678.602 758.165 678.369 758.165 678.098Z" fill="#263238"/>
<path d="M837.816 809.262H849.851V808.041H837.816V809.262Z" fill="#263238"/>
<path d="M837.816 811.917H849.851V810.696H837.816V811.917Z" fill="#263238"/>
<path d="M837.816 814.553H849.851V813.332H837.816V814.553Z" fill="#263238"/>
<path d="M837.816 817.208H849.851V815.987H837.816V817.208Z" fill="#263238"/>
<path d="M837.816 819.747H849.851V818.526H837.816V819.747Z" fill="#263238"/>
<path d="M837.816 822.401H849.851V821.18H837.816V822.401Z" fill="#263238"/>
<path d="M837.816 825.057H849.851V823.836H837.816V825.057Z" fill="#263238"/>
<path d="M837.816 827.692H849.851V826.471H837.816V827.692Z" fill="#263238"/>
<path d="M837.816 684.319H849.851V683.098H837.816V684.319Z" fill="#263238"/>
<path d="M837.816 686.955H849.851V685.734H837.816V686.955Z" fill="#263238"/>
<path d="M837.816 689.61H849.851V688.389H837.816V689.61Z" fill="#263238"/>
<path d="M837.816 692.265H849.851V691.044H837.816V692.265Z" fill="#263238"/>
<path d="M757.971 698.253H733.513V701.606H757.971V698.253Z" fill="#455A64"/>
<path d="M757.971 708.893H733.513V712.245H757.971V708.893Z" fill="#455A64"/>
<path d="M757.971 719.533H733.513V722.885H757.971V719.533Z" fill="#455A64"/>
<path d="M757.971 730.172H733.513V733.525H757.971V730.172Z" fill="#455A64"/>
<path d="M757.971 740.812H733.513V744.164H757.971V740.812Z" fill="#455A64"/>
<path d="M757.971 751.432H733.513V754.784H757.971V751.432Z" fill="#455A64"/>
<path d="M757.971 762.071H733.513V765.424H757.971V762.071Z" fill="#455A64"/>
<path d="M757.971 772.711H733.513V776.064H757.971V772.711Z" fill="#455A64"/>
<path d="M757.971 783.351H733.513V786.703H757.971V783.351Z" fill="#455A64"/>
<path d="M386.263 655.908L394.111 550.81H380.526L333.685 576.062V612.187L386.263 655.908Z" fill="#C69749"/>
<g opacity="0.3">
<path d="M386.263 655.908L394.111 550.81H380.526L333.685 576.062V612.187L386.263 655.908Z" fill="black"/>
</g>
<path d="M394.111 655.908V550.81L344.382 576.372L344.654 615.985L394.111 655.908Z" fill="#C69749"/>
<path d="M337.308 609.59H324.401V839.572H337.308V609.59Z" fill="#C69749"/>
<path d="M337.309 609.59V839.379L400.604 840.754V661.199L337.309 609.59Z" fill="#C69749"/>
<g opacity="0.3">
<path d="M400.545 672.148C400.545 672.148 353.025 688.699 355.022 747.866C357.018 807.033 400.836 814.126 400.836 814.126L400.545 672.148Z" fill="black"/>
</g>
<path d="M392.386 812.053C392.115 812.053 391.883 782.052 391.883 745.056C391.883 708.06 392.115 678.04 392.386 678.04C392.658 678.04 392.89 708.04 392.89 745.056C392.89 782.072 392.677 812.053 392.386 812.053Z" fill="#263238"/>
<path d="M382.018 802.518C381.747 802.518 381.514 775.831 381.514 742.924C381.514 710.017 381.747 683.408 382.018 683.408C382.289 683.408 382.522 710.094 382.522 743.021C382.522 775.948 382.309 802.518 382.018 802.518Z" fill="#263238"/>
<path d="M371.65 794.397C371.379 794.397 371.146 772.459 371.146 745.405C371.146 718.35 371.379 696.393 371.65 696.393C371.921 696.393 372.154 718.331 372.154 745.405C372.154 772.478 371.921 794.397 371.65 794.397Z" fill="#263238"/>
<path d="M361.282 776.916C360.991 776.916 360.778 762.168 360.778 743.97C360.778 725.773 360.991 711.024 361.282 711.024C361.572 711.024 361.786 725.773 361.786 743.97C361.786 762.168 361.553 776.916 361.282 776.916Z" fill="#263238"/>
<path d="M371.65 662.303H324.401V667.827H371.65V662.303Z" fill="white"/>
<path d="M348.026 671.838H324.401V677.362H348.026V671.838Z" fill="white"/>
<g opacity="0.3">
<path d="M337.308 609.59H324.401V839.572H337.308V609.59Z" fill="black"/>
</g>
<path d="M324.401 609.59C324.695 609.529 324.993 609.497 325.293 609.493H327.832L337.308 609.338H337.444C344.13 614.648 353.665 622.342 364.189 630.927C374.305 639.183 383.433 646.683 390.022 652.245L397.774 658.776L399.848 660.579C400.313 661.005 400.545 661.238 400.526 661.276C400.231 661.134 399.957 660.951 399.712 660.734L397.522 658.989L389.557 652.71C382.871 647.381 373.685 639.958 363.549 631.702C353.026 623.117 343.568 615.326 337.018 609.861H337.231L327.754 609.764L325.215 609.667C324.942 609.686 324.667 609.659 324.401 609.59Z" fill="#263238"/>
<path d="M344.44 576.256C340.86 576.928 337.187 576.928 333.607 576.256C335.368 575.751 337.209 575.58 339.033 575.752C340.851 575.581 342.685 575.752 344.44 576.256Z" fill="#263238"/>
<path d="M394.112 630.036H384.189V581.45L394.112 575.423V630.036Z" fill="white"/>
<path d="M356.184 671.838H350.661V677.362H356.184V671.838Z" fill="white"/>
<path d="M662.582 529.86C662.27 529.99 661.946 530.088 661.613 530.151L658.862 530.829L648.668 533.116L615.024 540.752L581.419 548.504L571.206 550.829L568.434 551.411C568.11 551.487 567.779 551.532 567.446 551.546C567.738 551.387 568.051 551.269 568.376 551.198L571.128 550.442L581.245 547.806C589.811 545.655 601.652 542.767 614.791 539.725C627.931 536.682 639.85 534.143 648.513 532.38C652.834 531.508 656.265 530.829 658.784 530.442L661.575 529.957C661.904 529.877 662.244 529.845 662.582 529.86Z" fill="#263238"/>
<path d="M423.278 591.373C422.008 592.096 420.654 592.662 419.247 593.059C416.728 593.969 413.22 595.152 409.325 596.411C405.429 597.671 401.883 598.756 399.305 599.493C397.933 599.987 396.509 600.325 395.061 600.501C396.323 599.775 397.671 599.208 399.073 598.814C401.592 597.904 405.119 596.721 409.015 595.462C412.91 594.202 416.457 593.117 419.034 592.38C420.406 591.886 421.83 591.548 423.278 591.373Z" fill="#263238"/>
<path d="M308.955 632.167C308.955 632.167 308.122 632.555 306.475 633.253L299.227 636.392C292.851 639.183 283.451 643.291 271.63 649.144C265.719 652.071 259.207 655.462 252.25 659.474C244.682 663.732 237.52 668.676 230.854 674.241C227.443 677.342 223.8 680.811 222.036 685.443C221.621 686.591 221.424 687.807 221.455 689.028C221.528 690.265 221.907 691.464 222.559 692.517C224.022 694.619 226.033 696.282 228.373 697.323C233.354 699.522 238.629 700.978 244.032 701.645C249.719 702.461 255.443 702.985 261.184 703.214C284.769 704.125 310.622 702.245 338.2 699.338C365.778 696.431 395.138 691.993 425.894 686.645C487.387 675.908 554.461 661.082 624.074 642.633C693.687 624.183 759.366 603.717 817.564 581.159C832.099 575.481 846.169 569.667 859.619 563.543C872.697 557.719 885.431 551.152 897.759 543.872C903.614 540.41 909.181 536.483 914.406 532.128C916.918 530.009 919.187 527.617 921.17 524.996C922.196 523.795 922.973 522.403 923.455 520.899C923.938 519.395 924.116 517.81 923.98 516.236C923.945 515.858 923.84 515.49 923.67 515.151C923.556 514.785 923.414 514.428 923.243 514.085C922.871 513.416 922.415 512.798 921.887 512.244C921.377 511.664 920.798 511.15 920.162 510.713L919.212 510.035L918.204 509.473C915.481 508.002 912.575 506.901 909.561 506.197C903.709 504.761 897.743 503.834 891.731 503.426C880.54 502.652 869.316 502.491 858.107 502.942C847.487 503.29 837.487 503.969 828.146 504.724C809.463 506.294 793.417 508.232 780.335 509.938C767.254 511.643 757.079 513.155 750.219 514.182L742.467 515.364C740.703 515.635 739.792 515.732 739.792 515.732L742.447 515.267L750.199 513.988C757.06 512.903 767.195 511.314 780.277 509.55C793.358 507.787 809.347 505.79 828.087 504.162C837.448 503.387 847.467 502.67 858.088 502.224C869.321 501.747 880.571 501.882 891.789 502.631C897.844 503.046 903.854 503.967 909.755 505.383C912.823 506.119 915.785 507.239 918.573 508.717L919.639 509.318L920.608 510.035C921.291 510.485 921.91 511.026 922.449 511.643C923.013 512.235 923.513 512.884 923.941 513.581C924.116 513.96 924.271 514.349 924.406 514.744C924.578 515.133 924.695 515.544 924.755 515.965C925.029 517.642 924.849 519.362 924.232 520.946C923.625 522.502 922.81 523.969 921.809 525.306C919.808 527.995 917.499 530.441 914.929 532.593C909.671 536.984 904.072 540.95 898.185 544.453C885.827 551.773 873.061 558.38 859.948 564.24C846.479 570.384 832.409 576.217 817.874 581.915C759.734 604.531 693.939 624.939 624.307 643.485C554.674 662.032 487.542 676.819 426.011 687.517C395.255 692.846 365.933 697.207 338.258 700.133C310.583 703.059 284.769 704.881 261.126 703.912C255.353 703.676 249.596 703.146 243.877 702.323C238.412 701.629 233.078 700.141 228.044 697.904C225.584 696.81 223.472 695.06 221.939 692.846C221.247 691.7 220.841 690.404 220.757 689.067C220.72 687.746 220.937 686.43 221.397 685.191C223.453 680.726 226.542 676.813 230.408 673.776C237.137 668.199 244.371 663.261 252.017 659.028C258.994 655.036 265.583 651.664 271.397 648.757C283.258 642.943 292.715 638.892 299.091 636.16L306.378 633.117L308.955 632.167Z" fill="#263238"/>
<path d="M681.362 626.508L628.319 641.702C627.774 641.859 627.204 641.906 626.641 641.842C626.078 641.778 625.533 641.603 625.038 641.327C624.543 641.052 624.107 640.681 623.755 640.236C623.404 639.792 623.143 639.282 622.989 638.737C622.832 638.191 622.785 637.62 622.849 637.055C622.913 636.491 623.088 635.945 623.363 635.448C623.638 634.951 624.009 634.514 624.454 634.16C624.898 633.807 625.408 633.544 625.954 633.388L678.978 618.194C679.523 618.035 680.094 617.985 680.657 618.049C681.221 618.112 681.767 618.286 682.263 618.562C682.759 618.838 683.195 619.21 683.546 619.656C683.897 620.101 684.156 620.613 684.308 621.159C684.625 622.259 684.493 623.44 683.941 624.443C683.389 625.446 682.461 626.189 681.362 626.508Z" fill="#455A64"/>
<path d="M885.898 507.321C858.01 505.732 828.979 509.899 801.285 513C796.653 513.504 793.146 508.756 792.952 504.666C792.739 499.821 796.963 496.817 801.285 496.352C805.607 495.887 809.774 495.422 814.018 494.996C829.347 493.484 844.735 492.321 860.162 491.934C871.548 491.51 882.95 491.854 894.29 492.961C907.429 494.414 930.007 497.612 930.705 514.899C930.957 521.062 927.449 526.527 923.592 531.023C918.634 536.355 912.998 541.013 906.829 544.88C888.553 557.167 868.069 566.411 847.952 575.074C817.991 587.923 787.351 599.144 756.459 609.532C752.041 611.024 747.544 607.826 746.207 603.718C745.666 601.591 745.969 599.338 747.053 597.43C748.137 595.522 749.917 594.108 752.021 593.485C756.188 592.09 760.316 590.675 764.463 589.26C779.638 584.008 794.735 578.562 809.696 572.787C816.453 570.203 823.191 567.522 829.909 564.744L835.064 562.593L836.266 562.109C836.014 562.206 834.638 562.787 836.053 562.109L838.107 561.237C841.15 559.938 844.173 558.62 847.216 557.361C847.216 557.361 884.735 539.531 895.666 532.167C905.491 525.616 913.941 519.996 911.867 514.608C909.619 508.775 885.898 507.321 885.898 507.321Z" fill="#E0E0E0"/>
<path d="M885.898 507.321C885.898 507.321 886.635 507.321 888.049 507.438C889.464 507.554 891.596 507.728 894.348 508.096C897.748 508.507 901.116 509.154 904.426 510.034C906.563 510.555 908.6 511.426 910.453 512.612C910.955 512.962 911.394 513.395 911.751 513.891C912.092 514.44 912.317 515.054 912.41 515.693C912.549 517.02 912.227 518.355 911.499 519.473C909.935 521.812 907.966 523.853 905.685 525.5C903.398 527.302 900.86 529.046 898.224 530.829C892.449 534.661 886.45 538.142 880.259 541.256C873.65 544.725 866.538 548.291 858.941 552.031L847.313 557.69L841.111 560.403L837.952 561.779L836.363 562.457L835.956 562.632H835.762H835.665C835.665 562.806 835.084 561.314 835.375 561.934L836.15 561.605L836.479 562.283C829.599 565.229 822.39 568 814.929 571.004L809.289 573.252L803.475 575.364L791.595 579.706L766.789 588.756C762.525 590.306 758.184 591.721 753.804 593.233C752.712 593.546 751.654 593.968 750.645 594.493C749.693 595.058 748.847 595.786 748.145 596.644C747.421 597.489 746.902 598.491 746.63 599.57C746.358 600.649 746.339 601.777 746.575 602.865C747.129 605.071 748.519 606.975 750.451 608.175C751.417 608.782 752.516 609.147 753.653 609.238C754.79 609.329 755.932 609.144 756.983 608.698L770.859 603.95C780.187 600.72 789.644 597.328 799.231 593.775C818.378 586.682 837.991 578.853 857.642 570.151C868.573 565.326 879.251 560.306 889.425 554.647C894.503 551.857 899.464 548.833 904.251 545.771C909.035 542.747 913.607 539.4 917.933 535.752C922.182 532.214 925.709 527.891 928.321 523.019C929.558 520.62 930.222 517.966 930.259 515.267C930.247 514.618 930.189 513.97 930.085 513.329C930.031 512.676 929.927 512.028 929.775 511.391L929.193 509.453C928.971 508.834 928.692 508.237 928.36 507.67C927.755 506.506 927.02 505.414 926.17 504.414C925.274 503.457 924.295 502.581 923.244 501.798C921.142 500.203 918.834 498.899 916.383 497.922C911.526 496.045 906.466 494.744 901.305 494.046C891.339 492.601 881.279 491.902 871.208 491.953C861.421 491.953 851.828 492.282 842.739 492.806C833.65 493.329 824.696 494.085 816.188 494.899L803.708 496.178C802.7 496.294 801.653 496.372 800.684 496.527C799.725 496.69 798.793 496.984 797.913 497.399C796.163 498.173 794.747 499.548 793.921 501.275C793.303 503.01 793.255 504.897 793.785 506.661C794.315 508.425 795.395 509.974 796.867 511.081C797.563 511.62 798.363 512.009 799.217 512.222C800.071 512.436 800.96 512.469 801.828 512.321L807.157 511.721L826.964 509.492C839.328 508.135 850.007 507.263 858.766 506.876C867.526 506.488 874.27 506.507 878.921 506.662C883.573 506.817 885.937 507.031 885.937 507.031C885.937 507.031 885.336 507.031 884.154 507.031C882.972 507.031 881.228 506.895 878.921 506.895C874.309 506.798 867.507 506.895 858.786 507.283C850.065 507.67 839.406 508.678 827.022 510.073L807.235 512.379L801.905 512.98C800.955 513.149 799.979 513.117 799.041 512.886C798.104 512.656 797.224 512.233 796.46 511.643C794.91 510.426 793.751 508.782 793.126 506.914C792.468 505.023 792.517 502.958 793.262 501.1C794.161 499.216 795.699 497.712 797.603 496.856C798.546 496.412 799.543 496.093 800.568 495.906C801.615 495.732 802.603 495.674 803.63 495.558L816.111 494.24C824.619 493.406 833.553 492.651 842.681 492.089C851.809 491.527 861.402 491.178 871.228 491.178C881.329 491.201 891.415 491.971 901.402 493.484C906.636 494.192 911.772 495.493 916.712 497.36C919.235 498.326 921.614 499.63 923.786 501.236C924.887 502.052 925.912 502.967 926.848 503.969C927.755 505.024 928.535 506.182 929.174 507.418C929.532 508.034 929.831 508.683 930.065 509.356L930.685 511.294C930.845 511.977 930.956 512.67 931.015 513.368C931.122 514.061 931.18 514.76 931.189 515.461C931.181 518.294 930.518 521.086 929.251 523.62C926.581 528.614 922.976 533.049 918.631 536.682C914.278 540.364 909.674 543.738 904.852 546.779C900.046 549.938 895.065 552.884 889.968 555.713C879.755 561.353 869.057 566.372 858.107 571.217C838.398 579.919 818.805 587.768 799.619 594.861C790.045 598.401 780.581 601.786 771.227 605.016L757.234 609.764C756.055 610.241 754.782 610.44 753.514 610.345C752.236 610.226 751.002 609.815 749.909 609.144C747.743 607.818 746.184 605.696 745.568 603.233C745.295 602.008 745.311 600.737 745.614 599.52C745.917 598.302 746.498 597.172 747.312 596.217C748.09 595.267 749.028 594.46 750.083 593.834C751.142 593.287 752.252 592.845 753.397 592.516C757.777 591.004 762.138 589.589 766.382 588.058L791.208 579.047L803.088 574.725L808.902 572.612L814.561 570.403C822.002 567.419 829.251 564.589 836.072 561.76L836.402 562.438L835.588 562.787C835.84 563.426 835.142 561.973 835.258 562.109H835.355H835.568L835.975 561.934L837.565 561.256L840.724 559.899L846.906 557.205L858.534 551.566C866.118 547.884 873.224 544.331 879.852 540.907C886.035 537.814 892.034 534.365 897.817 530.577C900.472 528.794 902.991 527.07 905.278 525.287C907.519 523.71 909.456 521.74 910.995 519.473C911.681 518.439 911.989 517.2 911.867 515.965C911.796 515.389 911.604 514.834 911.305 514.337C910.969 513.871 910.556 513.465 910.085 513.135C908.298 511.969 906.334 511.099 904.271 510.558C900.98 509.65 897.633 508.963 894.251 508.503C891.518 508.116 889.406 507.883 887.991 507.748L885.898 507.321Z" fill="#263238"/>
<path d="M798.301 496.934C798.301 496.837 799.308 497.36 800.413 498.639C801.832 500.358 802.744 502.439 803.049 504.647C803.325 506.865 802.969 509.115 802.022 511.139C801.285 512.67 800.51 513.407 800.413 513.329C800.668 512.486 800.985 511.664 801.363 510.868C802.05 508.918 802.282 506.836 802.041 504.783C801.763 502.736 801.006 500.784 799.832 499.085C798.94 497.748 798.204 497.05 798.301 496.934Z" fill="#263238"/>
<path d="M753.572 610.733C753.455 610.617 754.405 609.822 755.277 608.117C756.16 606.43 756.495 604.509 756.234 602.623C755.974 600.736 755.131 598.978 753.824 597.594C753.065 596.818 752.116 596.257 751.072 595.966C750.084 595.744 749.052 595.818 748.106 596.179C748.106 596.179 748.261 595.869 748.765 595.578C749.521 595.201 750.382 595.091 751.207 595.268C752.429 595.491 753.56 596.063 754.463 596.915C755.543 597.967 756.354 599.263 756.827 600.694C757.254 601.975 757.392 603.334 757.231 604.675C757.07 606.015 756.615 607.303 755.897 608.446C754.773 610.21 753.61 610.83 753.572 610.733Z" fill="#263238"/>
<path d="M795.491 595.365C795.599 594.485 795.755 593.612 795.956 592.749C796.266 590.679 796.012 588.564 795.221 586.627C794.43 584.689 793.13 583.001 791.459 581.741C790.18 580.752 789.231 580.345 789.289 580.19C790.223 580.258 791.119 580.595 791.866 581.159C793.791 582.367 795.289 584.148 796.147 586.251C797.006 588.355 797.183 590.675 796.653 592.884C796.227 594.551 795.607 595.423 795.491 595.365Z" fill="#263238"/>
<path d="M884.794 557.884C884.794 557.884 884.89 557.05 884.794 555.5C884.764 553.276 884.206 551.09 883.166 549.124L883.514 549.24C874.929 553.116 860.413 559.337 843.921 566.372L809.909 580.694L799.541 584.938L796.692 586.062C796.372 586.213 796.033 586.317 795.684 586.372C795.978 586.176 796.29 586.008 796.615 585.869L799.386 584.589L809.638 580.035L843.611 565.384C860.084 558.349 874.619 552.225 883.379 548.659L883.631 548.562L883.728 548.775C884.767 550.839 885.267 553.133 885.181 555.442C885.164 556.041 885.093 556.638 884.968 557.225C884.89 557.69 884.832 557.903 884.794 557.884Z" fill="#263238"/>
<path d="M839.856 501.17L827.026 502.155L827.216 504.629L840.046 503.644L839.856 501.17Z" fill="#455A64"/>
<g opacity="0.3">
<path d="M798.456 497.031C796.947 497.503 795.616 498.42 794.638 499.662C793.659 500.903 793.078 502.411 792.971 503.988C792.879 505.66 793.259 507.325 794.068 508.792C794.877 510.258 796.081 511.468 797.545 512.283C798.025 512.587 798.571 512.773 799.137 512.823C799.704 512.874 800.274 512.788 800.8 512.574C801.61 512.041 802.191 511.226 802.428 510.287C803.224 507.896 803.183 505.306 802.312 502.942C801.729 500.615 800.36 498.561 798.436 497.128" fill="black"/>
</g>
<g opacity="0.3">
<path d="M750.878 595.946C750.411 595.722 749.889 595.64 749.376 595.709C748.863 595.778 748.381 595.995 747.99 596.334C747.201 597.019 746.645 597.934 746.401 598.95C745.954 600.653 746.012 602.448 746.57 604.118C747.128 605.787 748.16 607.258 749.541 608.349C750.106 608.843 750.779 609.196 751.506 609.381C752.234 609.567 752.994 609.578 753.727 609.415C754.718 609.046 755.529 608.311 755.994 607.361C756.432 606.418 756.676 605.396 756.711 604.357C756.894 602.56 756.593 600.747 755.839 599.105C755.472 598.294 754.936 597.571 754.268 596.983C753.6 596.395 752.814 595.956 751.963 595.694" fill="black"/>
</g>
<path d="M643.958 532.748L590.121 544.783C589.566 544.909 588.992 544.924 588.431 544.827C587.87 544.731 587.334 544.524 586.853 544.22C586.372 543.916 585.957 543.519 585.629 543.054C585.302 542.589 585.07 542.063 584.946 541.508C584.703 540.39 584.911 539.222 585.524 538.257C586.137 537.292 587.107 536.607 588.221 536.353L642.059 524.318C643.179 524.069 644.353 524.274 645.322 524.887C646.292 525.501 646.979 526.474 647.234 527.593C647.477 528.71 647.269 529.879 646.656 530.844C646.043 531.809 645.073 532.493 643.958 532.748Z" fill="#455A64"/>
<path d="M415.836 687.749C413.704 687.924 410.507 700.579 409.189 706.141C409.135 706.562 409.165 706.99 409.277 707.4C409.389 707.81 409.581 708.194 409.842 708.529C410.104 708.864 410.429 709.144 410.799 709.353C411.169 709.562 411.577 709.695 411.999 709.746C414.903 710.499 417.944 710.559 420.875 709.92C421.304 709.871 421.719 709.735 422.092 709.519C422.466 709.303 422.792 709.012 423.048 708.665C423.305 708.318 423.487 707.921 423.583 707.5C423.679 707.079 423.688 706.643 423.608 706.218C422.018 700.85 417.968 687.575 415.836 687.749Z" fill="#455A64"/>
<path d="M730.626 807.634C727.699 807.925 723.28 829.785 721.478 839.398C721.234 840.731 721.496 842.108 722.213 843.258C722.93 844.408 724.05 845.25 725.354 845.619C729.307 846.913 733.554 847.015 737.564 845.909C738.888 845.524 740.014 844.647 740.713 843.458C741.412 842.269 741.63 840.858 741.323 839.514C739.133 830.095 733.552 807.324 730.626 807.634Z" fill="#455A64"/>
<path d="M786.343 808.7C783.417 809.01 778.998 830.871 777.196 840.483C776.957 841.814 777.222 843.185 777.938 844.331C778.654 845.478 779.771 846.316 781.072 846.685C785.021 847.994 789.27 848.102 793.281 846.995C794.609 846.609 795.739 845.73 796.439 844.536C797.138 843.343 797.353 841.927 797.041 840.58C794.812 831.181 789.27 808.409 786.343 808.7Z" fill="#455A64"/>
<path d="M761.866 816.607C759.928 816.8 756.808 831.859 755.587 838.467C755.416 839.381 755.591 840.326 756.078 841.118C756.565 841.91 757.33 842.492 758.223 842.75C760.944 843.651 763.871 843.725 766.634 842.963C767.546 842.7 768.324 842.098 768.807 841.28C769.289 840.462 769.441 839.49 769.231 838.564C767.68 832.072 763.804 816.393 761.866 816.607Z" fill="#455A64"/>
<path d="M753.145 831.723C751.808 831.839 749.793 840.871 748.959 844.824C748.867 845.395 748.999 845.98 749.328 846.457C749.656 846.933 750.156 847.265 750.723 847.382C752.537 847.928 754.465 847.975 756.304 847.518C756.884 847.392 757.39 847.043 757.713 846.545C758.036 846.048 758.15 845.443 758.029 844.863C757.021 840.987 754.482 831.587 753.145 831.723Z" fill="#263238"/>
<path d="M551.496 821.49C549.403 821.704 546.244 837.304 544.965 844.165C544.788 845.115 544.973 846.096 545.482 846.917C545.991 847.738 546.788 848.339 547.717 848.603C550.538 849.543 553.575 849.618 556.438 848.816C557.381 848.536 558.182 847.907 558.679 847.058C559.175 846.208 559.33 845.202 559.113 844.242C557.562 837.518 553.57 821.277 551.496 821.49Z" fill="#455A64"/>
<path d="M540.527 828.564C539.19 828.681 537.174 837.712 536.341 841.665C536.254 842.236 536.388 842.819 536.716 843.294C537.044 843.769 537.54 844.102 538.105 844.224C539.919 844.769 541.847 844.816 543.686 844.359C544.266 844.234 544.772 843.884 545.095 843.387C545.418 842.889 545.532 842.285 545.411 841.704C544.403 837.828 541.864 828.429 540.527 828.564Z" fill="#263238"/>
<path d="M364.305 808.797C360.642 809.087 355.099 830.948 352.832 840.56C352.192 843.312 354.305 845.987 357.657 846.781C362.681 848.077 367.938 848.176 373.006 847.072C376.456 846.239 378.53 843.467 377.716 840.677C374.983 831.258 367.968 808.487 364.305 808.797Z" fill="#455A64"/>
<path d="M348.956 816.219C346.611 816.452 343.142 834.049 341.611 841.762C341.414 842.829 341.62 843.931 342.189 844.855C342.759 845.779 343.651 846.459 344.692 846.762C347.878 847.81 351.302 847.898 354.537 847.014C355.603 846.702 356.509 845.994 357.071 845.036C357.633 844.078 357.808 842.942 357.561 841.859C355.797 834.282 351.32 815.967 348.956 816.219Z" fill="#455A64"/>
<path d="M335.08 829.533C333.743 829.65 331.727 838.681 330.894 842.634C330.802 843.206 330.934 843.79 331.262 844.267C331.591 844.743 332.091 845.075 332.657 845.192C334.472 845.738 336.4 845.785 338.239 845.328C338.817 845.207 339.323 844.861 339.647 844.367C339.97 843.873 340.084 843.271 339.964 842.692C338.975 838.797 336.417 829.417 335.08 829.533Z" fill="#263238"/>
<path d="M356.262 834.34C354.13 834.514 350.933 847.169 349.615 852.731C349.561 853.151 349.59 853.578 349.701 853.987C349.812 854.395 350.002 854.778 350.262 855.113C350.521 855.448 350.844 855.728 351.212 855.938C351.58 856.148 351.985 856.283 352.406 856.336C355.318 857.08 358.362 857.139 361.301 856.51C361.731 856.459 362.146 856.321 362.52 856.103C362.894 855.885 363.219 855.592 363.475 855.243C363.732 854.894 363.913 854.496 364.009 854.074C364.105 853.652 364.114 853.215 364.034 852.789C362.445 847.344 358.394 834.165 356.262 834.34Z" fill="#455A64"/>
<g opacity="0.3">
<path d="M356.262 834.34C354.13 834.514 350.933 847.169 349.615 852.731C349.561 853.151 349.59 853.578 349.701 853.987C349.812 854.395 350.002 854.778 350.262 855.113C350.521 855.448 350.844 855.728 351.212 855.938C351.58 856.148 351.985 856.283 352.406 856.336C355.318 857.08 358.362 857.139 361.301 856.51C361.731 856.459 362.146 856.321 362.52 856.103C362.894 855.885 363.219 855.592 363.475 855.243C363.732 854.894 363.913 854.496 364.009 854.074C364.105 853.652 364.114 853.215 364.034 852.789C362.445 847.344 358.394 834.165 356.262 834.34Z" fill="black"/>
</g>
<path d="M383.724 828.216C382.018 828.351 379.441 838.487 378.394 842.925C378.351 843.262 378.375 843.605 378.464 843.933C378.554 844.261 378.708 844.569 378.917 844.837C379.126 845.105 379.386 845.33 379.682 845.497C379.978 845.665 380.304 845.772 380.642 845.813C382.964 846.405 385.392 846.452 387.735 845.948C389.344 845.561 390.313 844.282 389.925 842.983C388.665 838.623 385.41 828.08 383.724 828.216Z" fill="#455A64"/>
<g opacity="0.3">
<path d="M383.724 828.216C382.018 828.351 379.441 838.487 378.394 842.925C378.351 843.262 378.375 843.605 378.464 843.933C378.554 844.261 378.708 844.569 378.917 844.837C379.126 845.105 379.386 845.33 379.682 845.497C379.978 845.665 380.304 845.772 380.642 845.813C382.964 846.405 385.392 846.452 387.735 845.948C389.344 845.561 390.313 844.282 389.925 842.983C388.665 838.623 385.41 828.08 383.724 828.216Z" fill="black"/>
</g>
<path d="M413.608 840.134C411.902 840.27 409.344 850.386 408.298 854.844C408.251 855.179 408.273 855.52 408.361 855.847C408.448 856.174 408.6 856.48 408.808 856.747C409.016 857.014 409.275 857.237 409.57 857.403C409.865 857.569 410.19 857.674 410.526 857.712C412.852 858.327 415.291 858.374 417.639 857.847C417.981 857.811 418.313 857.703 418.612 857.532C418.911 857.361 419.172 857.13 419.378 856.853C419.583 856.577 419.73 856.261 419.807 855.925C419.885 855.589 419.892 855.24 419.829 854.902C418.55 850.541 415.313 839.998 413.608 840.134Z" fill="#455A64"/>
<g opacity="0.3">
<path d="M413.608 840.134C411.902 840.27 409.344 850.386 408.298 854.844C408.251 855.179 408.273 855.52 408.361 855.847C408.448 856.174 408.6 856.48 408.808 856.747C409.016 857.014 409.275 857.237 409.57 857.403C409.865 857.569 410.19 857.674 410.526 857.712C412.852 858.327 415.291 858.374 417.639 857.847C417.981 857.811 418.313 857.703 418.612 857.532C418.911 857.361 419.172 857.13 419.378 856.853C419.583 856.577 419.73 856.261 419.807 855.925C419.885 855.589 419.892 855.24 419.829 854.902C418.55 850.541 415.313 839.998 413.608 840.134Z" fill="black"/>
</g>
<path d="M496.612 822.692C493.686 822.983 489.267 844.863 487.484 854.456C487.24 855.789 487.502 857.166 488.219 858.316C488.936 859.467 490.056 860.308 491.36 860.677C495.317 861.985 499.572 862.093 503.589 860.987C504.915 860.597 506.042 859.717 506.74 858.525C507.439 857.333 507.656 855.919 507.349 854.572C505.12 845.154 499.539 822.402 496.612 822.692Z" fill="#455A64"/>
<path d="M446.65 810.502C443.724 810.812 439.305 832.673 437.522 842.286C437.284 843.616 437.548 844.988 438.265 846.134C438.981 847.28 440.098 848.119 441.398 848.487C445.355 849.795 449.61 849.903 453.627 848.797C454.949 848.408 456.072 847.53 456.771 846.342C457.469 845.155 457.689 843.746 457.387 842.402C455.158 832.983 449.577 810.212 446.65 810.502Z" fill="#455A64"/>
<path d="M459.809 823.816C457.871 824.01 454.945 838.564 453.744 844.94C453.583 845.826 453.755 846.739 454.227 847.505C454.7 848.27 455.439 848.834 456.302 849.088C458.931 849.945 461.754 850.012 464.422 849.282C465.306 849.027 466.059 848.443 466.524 847.649C466.989 846.856 467.132 845.914 466.922 845.018C465.468 838.758 461.767 823.622 459.809 823.816Z" fill="#455A64"/>
<path d="M485.701 834.999C484.364 835.115 482.349 844.146 481.515 848.1C481.423 848.673 481.554 849.261 481.882 849.74C482.211 850.22 482.71 850.555 483.279 850.677C485.096 851.209 487.022 851.249 488.86 850.793C489.435 850.664 489.935 850.312 490.251 849.814C490.567 849.316 490.673 848.714 490.546 848.138C489.597 844.262 487.038 834.882 485.701 834.999Z" fill="#263238"/>
<path d="M435.236 827.15C433.084 827.344 429.848 841.82 428.53 848.177C428.381 849.095 428.592 850.034 429.119 850.8C429.647 851.565 430.449 852.098 431.36 852.286C434.271 853.157 437.363 853.23 440.313 852.499C441.243 852.303 442.058 851.746 442.577 850.95C443.097 850.155 443.279 849.185 443.084 848.255C441.476 842.014 437.387 826.956 435.236 827.15Z" fill="#263238"/>
<path d="M469.713 831.161C468.007 831.297 465.449 841.433 464.403 845.871C464.356 846.207 464.378 846.549 464.465 846.877C464.553 847.206 464.704 847.513 464.912 847.782C465.119 848.05 465.378 848.275 465.673 848.443C465.969 848.611 466.294 848.718 466.631 848.759C468.96 849.354 471.395 849.401 473.744 848.894C474.087 848.855 474.418 848.745 474.717 848.572C475.015 848.399 475.274 848.165 475.478 847.887C475.682 847.608 475.826 847.291 475.901 846.954C475.976 846.617 475.981 846.268 475.914 845.929C474.655 841.569 471.399 831.026 469.713 831.161Z" fill="#455A64"/>
<g opacity="0.3">
<path d="M469.713 831.161C468.007 831.297 465.449 841.433 464.403 845.871C464.356 846.207 464.378 846.549 464.465 846.877C464.553 847.206 464.704 847.513 464.912 847.782C465.119 848.05 465.378 848.275 465.673 848.443C465.969 848.611 466.294 848.718 466.631 848.759C468.96 849.354 471.395 849.401 473.744 848.894C474.087 848.855 474.418 848.745 474.717 848.572C475.015 848.399 475.274 848.165 475.478 847.887C475.682 847.608 475.826 847.291 475.901 846.954C475.976 846.617 475.981 846.268 475.914 845.929C474.655 841.569 471.399 831.026 469.713 831.161Z" fill="black"/>
</g>
<path d="M581.438 794.397C578.88 794.649 575.043 813.777 573.473 822.091C573.264 823.248 573.491 824.441 574.11 825.44C574.729 826.438 575.697 827.172 576.826 827.498C580.267 828.64 583.97 828.735 587.466 827.77C588.622 827.434 589.607 826.669 590.219 825.632C590.832 824.595 591.025 823.363 590.76 822.188C588.841 813.991 583.977 794.145 581.438 794.397Z" fill="#455A64"/>
<path d="M598.822 804.824C596.729 805.037 593.59 820.638 592.291 827.498C592.114 828.448 592.298 829.43 592.808 830.25C593.317 831.071 594.114 831.673 595.043 831.937C597.864 832.877 600.901 832.951 603.764 832.15C604.711 831.873 605.516 831.246 606.017 830.396C606.517 829.547 606.675 828.538 606.458 827.576C604.888 820.851 601.012 804.611 598.822 804.824Z" fill="#455A64"/>
<path d="M616.361 829.379C615.024 829.514 613.008 838.526 612.175 842.499C612.088 843.07 612.222 843.652 612.55 844.127C612.878 844.603 613.374 844.935 613.939 845.057C615.755 845.598 617.683 845.639 619.52 845.173C619.809 845.118 620.083 845.005 620.328 844.842C620.572 844.678 620.781 844.467 620.942 844.221C621.103 843.975 621.212 843.7 621.265 843.41C621.317 843.121 621.31 842.824 621.245 842.537C620.257 838.661 617.698 829.262 616.361 829.379Z" fill="#263238"/>
<path d="M587.95 827.809C585.237 828.022 581.148 844.165 579.481 851.258C579.41 851.794 579.447 852.339 579.588 852.861C579.73 853.383 579.974 853.872 580.305 854.299C580.637 854.726 581.05 855.083 581.52 855.35C581.991 855.616 582.51 855.787 583.047 855.851C586.757 856.812 590.641 856.885 594.384 856.065C594.931 856.002 595.46 855.828 595.937 855.552C596.413 855.275 596.827 854.903 597.153 854.459C597.479 854.015 597.709 853.508 597.83 852.971C597.95 852.433 597.958 851.877 597.853 851.336C595.838 844.398 590.663 827.576 587.95 827.809Z" fill="#455A64"/>
<g opacity="0.3">
<path d="M587.95 827.809C585.237 828.022 581.148 844.165 579.481 851.258C579.41 851.794 579.447 852.339 579.588 852.861C579.73 853.383 579.974 853.872 580.305 854.299C580.637 854.726 581.05 855.083 581.52 855.35C581.991 855.616 582.51 855.787 583.047 855.851C586.757 856.812 590.641 856.885 594.384 856.065C594.931 856.002 595.46 855.828 595.937 855.552C596.413 855.275 596.827 854.903 597.153 854.459C597.479 854.015 597.709 853.508 597.83 852.971C597.95 852.433 597.958 851.877 597.853 851.336C595.838 844.398 590.663 827.576 587.95 827.809Z" fill="black"/>
</g>
<path d="M631.09 611.896H618.183V841.878H631.09V611.896Z" fill="#C69749"/>
<path d="M631.09 611.896V841.665L694.385 843.061V663.486L631.09 611.896Z" fill="#C69749"/>
<g opacity="0.3">
<path d="M694.327 674.435C694.327 674.435 646.788 690.986 648.803 750.153C650.819 809.32 694.618 816.413 694.618 816.413L694.327 674.435Z" fill="black"/>
</g>
<path d="M686.168 814.359C685.897 814.359 685.664 784.339 685.664 747.343C685.664 710.346 685.897 680.327 686.168 680.327C686.439 680.327 686.672 710.327 686.672 747.343C686.672 784.358 686.439 814.359 686.168 814.359Z" fill="#263238"/>
<path d="M675.8 804.824C675.509 804.824 675.296 778.118 675.296 745.211C675.296 712.304 675.509 685.598 675.8 685.598C676.09 685.598 676.303 712.284 676.303 745.211C676.303 778.138 676.071 804.824 675.8 804.824Z" fill="#263238"/>
<path d="M665.431 796.684C665.141 796.684 664.927 774.746 664.927 747.692C664.927 720.637 665.141 698.699 665.431 698.699C665.722 698.699 665.935 720.618 665.935 747.692C665.935 774.766 665.703 796.684 665.431 796.684Z" fill="#263238"/>
<path d="M655.044 779.204C654.772 779.204 654.54 764.455 654.54 746.258C654.54 728.06 654.772 713.312 655.044 713.312C655.315 713.312 655.548 728.06 655.548 746.258C655.548 764.455 655.276 779.204 655.044 779.204Z" fill="#263238"/>
<g opacity="0.3">
<path d="M631.09 611.896H618.183V841.878H631.09V611.896Z" fill="black"/>
</g>
<path d="M666.768 824.01C666.235 821.24 665.437 818.527 664.385 815.909C663.657 814.509 662.573 813.324 661.244 812.474C659.914 811.624 658.384 811.138 656.807 811.064H656.4H655.974C654.397 811.138 652.867 811.624 651.537 812.474C650.208 813.324 649.124 814.509 648.396 815.909C647.351 818.528 646.559 821.241 646.032 824.01C644.971 827.367 644.396 830.859 644.326 834.379C644.307 836.045 644.643 837.697 645.311 839.224C645.979 840.751 646.965 842.119 648.202 843.235C650.603 844.93 653.535 845.701 656.458 845.406C659.792 845.406 662.602 845.038 664.714 843.235C665.95 842.117 666.934 840.749 667.602 839.223C668.27 837.696 668.607 836.045 668.59 834.379C668.475 830.854 667.861 827.363 666.768 824.01Z" fill="#455A64"/>
<path d="M688.222 809.669C685.296 809.979 680.896 831.84 679.094 841.433C678.85 842.766 679.112 844.142 679.829 845.293C680.546 846.443 681.666 847.285 682.97 847.654C686.926 848.962 691.181 849.07 695.199 847.964C696.524 847.574 697.651 846.693 698.35 845.501C699.049 844.309 699.266 842.896 698.959 841.549C696.711 832.15 691.129 809.378 688.222 809.669Z" fill="#455A64"/>
<path d="M702.873 809.049C701.284 809.204 698.901 821.045 697.932 826.239C697.797 826.956 697.936 827.697 698.319 828.317C698.703 828.937 699.304 829.391 700.005 829.592C702.142 830.305 704.443 830.366 706.614 829.766C707.329 829.553 707.938 829.077 708.315 828.433C708.693 827.789 708.812 827.025 708.649 826.297C707.467 821.2 704.443 808.874 702.873 809.049Z" fill="#455A64"/>
<path d="M711.071 814.591C709.734 814.727 707.718 823.739 706.904 827.712C706.807 828.281 706.934 828.866 707.26 829.343C707.585 829.82 708.083 830.153 708.649 830.27C710.471 830.811 712.406 830.851 714.249 830.386C714.535 830.326 714.806 830.21 715.047 830.045C715.288 829.88 715.493 829.669 715.652 829.424C715.81 829.179 715.919 828.905 715.971 828.617C716.023 828.33 716.017 828.036 715.955 827.75C714.967 823.874 712.408 814.475 711.071 814.591Z" fill="#263238"/>
<path d="M697.428 832.809C695.935 832.925 693.687 841.801 692.757 845.696C692.68 846.287 692.841 846.885 693.204 847.357C693.568 847.83 694.104 848.138 694.695 848.216C696.73 848.742 698.86 848.789 700.916 848.351C701.219 848.319 701.511 848.225 701.775 848.074C702.04 847.923 702.27 847.72 702.452 847.476C702.634 847.232 702.764 846.953 702.833 846.657C702.902 846.361 702.909 846.054 702.854 845.754C701.788 841.917 698.92 832.634 697.428 832.809Z" fill="#455A64"/>
<g opacity="0.3">
<path d="M697.428 832.809C695.935 832.925 693.687 841.801 692.757 845.696C692.68 846.287 692.841 846.885 693.204 847.357C693.568 847.83 694.104 848.138 694.695 848.216C696.73 848.742 698.86 848.789 700.916 848.351C701.219 848.319 701.511 848.225 701.775 848.074C702.04 847.923 702.27 847.72 702.452 847.476C702.634 847.232 702.764 846.953 702.833 846.657C702.902 846.361 702.909 846.054 702.854 845.754C701.788 841.917 698.92 832.634 697.428 832.809Z" fill="black"/>
</g>
<path d="M874.386 807.595C871.46 807.886 867.041 829.766 865.258 839.359C865.014 840.692 865.276 842.068 865.993 843.219C866.71 844.369 867.83 845.211 869.134 845.58C873.092 846.884 877.348 846.985 881.363 845.87C882.685 845.481 883.808 844.603 884.507 843.416C885.205 842.228 885.425 840.819 885.123 839.475C882.894 830.056 877.313 807.285 874.386 807.595Z" fill="#455A64"/>
<path d="M895.782 822.944C894.445 823.061 892.429 832.092 891.596 836.045C891.509 836.616 891.643 837.198 891.971 837.674C892.298 838.149 892.795 838.482 893.36 838.603C895.174 839.149 897.102 839.196 898.941 838.739C899.521 838.613 900.027 838.264 900.35 837.767C900.673 837.269 900.787 836.665 900.666 836.084C899.677 832.266 897.119 822.944 895.782 822.944Z" fill="#263238"/>
<path d="M863.204 830.696C861.712 830.813 859.464 839.689 858.534 843.584C858.462 844.174 858.625 844.769 858.987 845.24C859.35 845.711 859.883 846.021 860.472 846.103C862.513 846.635 864.652 846.675 866.712 846.22C867.016 846.19 867.31 846.098 867.576 845.948C867.841 845.798 868.073 845.594 868.255 845.35C868.438 845.105 868.567 844.825 868.635 844.528C868.703 844.231 868.708 843.922 868.65 843.623C867.526 839.863 864.677 830.696 863.204 830.696Z" fill="#455A64"/>
<g opacity="0.3">
<path d="M863.204 830.696C861.712 830.813 859.464 839.689 858.534 843.584C858.462 844.174 858.625 844.769 858.987 845.24C859.35 845.711 859.883 846.021 860.472 846.103C862.513 846.635 864.652 846.675 866.712 846.22C867.016 846.19 867.31 846.098 867.576 845.948C867.841 845.798 868.073 845.594 868.255 845.35C868.438 845.105 868.567 844.825 868.635 844.528C868.703 844.231 868.708 843.922 868.65 843.623C867.526 839.863 864.677 830.696 863.204 830.696Z" fill="black"/>
</g>
<path d="M248.18 747.498C246.067 747.672 242.85 760.327 241.552 765.889C241.492 766.316 241.52 766.75 241.634 767.166C241.748 767.582 241.944 767.97 242.213 768.307C242.481 768.644 242.815 768.923 243.194 769.127C243.574 769.331 243.991 769.456 244.42 769.494C247.325 770.238 250.364 770.298 253.296 769.668C253.729 769.623 254.148 769.487 254.525 769.271C254.903 769.055 255.232 768.763 255.49 768.413C255.749 768.063 255.932 767.663 256.028 767.239C256.124 766.814 256.131 766.375 256.048 765.947C254.362 760.502 250.234 747.362 248.18 747.498Z" fill="#455A64"/>
<path d="M268.781 740.347C267.444 740.463 265.409 748.467 264.575 751.975C264.54 752.241 264.558 752.511 264.627 752.77C264.697 753.03 264.817 753.272 264.981 753.485C265.145 753.698 265.349 753.876 265.582 754.009C265.815 754.142 266.073 754.228 266.339 754.261C268.179 754.73 270.104 754.763 271.959 754.358C273.219 754.048 273.994 753.04 273.684 752.013C272.696 748.583 270.118 740.25 268.781 740.347Z" fill="#455A64"/>
<path d="M288.994 743.912C287.638 743.912 285.622 752.013 284.789 755.54C284.742 755.807 284.752 756.08 284.817 756.343C284.882 756.605 285.002 756.851 285.168 757.065C285.334 757.279 285.543 757.455 285.782 757.583C286.02 757.711 286.283 757.788 286.552 757.808C288.39 758.29 290.316 758.33 292.173 757.924C292.447 757.9 292.713 757.818 292.953 757.683C293.194 757.548 293.402 757.364 293.565 757.142C293.729 756.92 293.843 756.666 293.9 756.396C293.957 756.127 293.956 755.848 293.898 755.579C292.87 752.129 290.254 743.796 288.994 743.912Z" fill="#263238"/>
<path d="M278.122 738.796C277.095 738.893 275.544 744.998 274.924 747.692C274.894 747.894 274.905 748.101 274.957 748.299C275.008 748.498 275.099 748.684 275.224 748.847C275.348 749.009 275.505 749.145 275.683 749.246C275.861 749.348 276.058 749.412 276.261 749.436C277.674 749.785 279.151 749.785 280.564 749.436C281.533 749.203 282.114 748.428 281.882 747.653C281.126 745.095 279.149 738.719 278.122 738.796Z" fill="#263238"/>
<path d="M217.753 777.905C216.726 778.002 215.176 784.107 214.536 786.8C214.509 787.004 214.523 787.211 214.576 787.41C214.63 787.608 214.723 787.794 214.849 787.957C214.975 788.119 215.133 788.255 215.312 788.355C215.491 788.456 215.688 788.521 215.893 788.545C217.305 788.894 218.782 788.894 220.195 788.545C220.401 788.519 220.599 788.452 220.778 788.347C220.957 788.242 221.113 788.102 221.236 787.935C221.359 787.769 221.447 787.579 221.495 787.377C221.542 787.175 221.549 786.966 221.513 786.762C220.738 784.184 218.78 777.827 217.753 777.905Z" fill="#263238"/>
<path d="M234.265 770.308C233.238 770.308 231.688 776.509 231.068 779.203C231.04 779.406 231.053 779.611 231.106 779.809C231.158 780.006 231.249 780.191 231.374 780.353C231.498 780.515 231.653 780.651 231.83 780.753C232.007 780.855 232.202 780.921 232.405 780.947C233.82 781.277 235.292 781.277 236.707 780.947C236.916 780.925 237.118 780.859 237.3 780.754C237.482 780.648 237.64 780.507 237.764 780.337C237.888 780.167 237.975 779.974 238.02 779.769C238.065 779.563 238.067 779.351 238.025 779.145C237.269 776.587 235.292 770.23 234.265 770.308Z" fill="#263238"/>
<path d="M224.672 771.781C222.54 771.956 219.343 784.63 218.025 790.192C217.954 790.619 217.97 791.055 218.074 791.475C218.177 791.895 218.365 792.29 218.627 792.635C218.888 792.979 219.217 793.267 219.593 793.48C219.97 793.693 220.385 793.827 220.815 793.874C223.725 794.637 226.774 794.697 229.711 794.049C230.14 794 230.554 793.864 230.928 793.648C231.302 793.432 231.628 793.141 231.884 792.794C232.141 792.446 232.323 792.05 232.419 791.629C232.515 791.208 232.523 790.771 232.443 790.347C230.854 784.804 226.804 771.626 224.672 771.781Z" fill="#455A64"/>
<g opacity="0.3">
<path d="M224.672 771.781C222.54 771.956 219.343 784.63 218.025 790.192C217.954 790.619 217.97 791.055 218.074 791.475C218.177 791.895 218.365 792.29 218.627 792.635C218.888 792.979 219.217 793.267 219.593 793.48C219.97 793.693 220.385 793.827 220.815 793.874C223.725 794.637 226.774 794.697 229.711 794.049C230.14 794 230.554 793.864 230.928 793.648C231.302 793.432 231.628 793.141 231.884 792.794C232.141 792.446 232.323 792.05 232.419 791.629C232.515 791.208 232.523 790.771 232.443 790.347C230.854 784.804 226.804 771.626 224.672 771.781Z" fill="black"/>
</g>
<path d="M256.377 750.599C254.846 750.715 252.501 759.901 251.571 763.951C251.488 764.552 251.645 765.161 252.007 765.648C252.37 766.134 252.91 766.457 253.509 766.548C255.621 767.094 257.83 767.141 259.963 766.684C260.272 766.645 260.569 766.542 260.837 766.383C261.104 766.224 261.336 766.011 261.518 765.759C261.7 765.506 261.828 765.219 261.893 764.914C261.959 764.61 261.962 764.295 261.901 763.99C260.874 760.037 257.986 750.463 256.377 750.599Z" fill="#455A64"/>
<g opacity="0.3">
<path d="M256.377 750.599C254.846 750.715 252.501 759.901 251.571 763.951C251.488 764.552 251.645 765.161 252.007 765.648C252.37 766.134 252.91 766.457 253.509 766.548C255.621 767.094 257.83 767.141 259.963 766.684C260.272 766.645 260.569 766.542 260.837 766.383C261.104 766.224 261.336 766.011 261.518 765.759C261.7 765.506 261.828 765.219 261.893 764.914C261.959 764.61 261.962 764.295 261.901 763.99C260.874 760.037 257.986 750.463 256.377 750.599Z" fill="black"/>
</g>
<path d="M295.68 729.087C294.149 729.223 291.804 738.409 290.855 742.44C290.778 743.057 290.949 743.678 291.331 744.169C291.712 744.66 292.273 744.979 292.89 745.056C295.002 745.598 297.213 745.638 299.343 745.172C299.652 745.133 299.95 745.031 300.217 744.872C300.485 744.712 300.717 744.5 300.898 744.247C301.08 743.994 301.208 743.707 301.274 743.403C301.34 743.098 301.342 742.784 301.281 742.479C300.177 738.525 297.231 728.971 295.68 729.087Z" fill="#455A64"/>
<g opacity="0.3">
<path d="M295.68 729.087C294.149 729.223 291.804 738.409 290.855 742.44C290.778 743.057 290.949 743.678 291.331 744.169C291.712 744.66 292.273 744.979 292.89 745.056C295.002 745.598 297.213 745.638 299.343 745.172C299.652 745.133 299.95 745.031 300.217 744.872C300.485 744.712 300.717 744.5 300.898 744.247C301.08 743.994 301.208 743.707 301.274 743.403C301.34 743.098 301.342 742.784 301.281 742.479C300.177 738.525 297.231 728.971 295.68 729.087Z" fill="black"/>
</g>
<path d="M384.945 404.918C384.577 403.694 383.75 402.66 382.639 402.03C381.79 401.807 380.89 401.904 380.108 402.3C379.326 402.696 378.716 403.366 378.394 404.181C377.803 405.838 377.643 407.619 377.929 409.356C377.492 408.502 376.858 407.766 376.079 407.208C375.299 406.65 374.398 406.287 373.449 406.148C372.501 406.01 371.533 406.1 370.627 406.412C369.72 406.724 368.902 407.248 368.239 407.941C367.75 408.678 367.199 409.371 366.592 410.014C365.281 410.894 363.707 411.298 362.135 411.158C344.489 411.548 326.876 412.842 309.363 415.034C312.218 416.199 315.296 416.715 318.374 416.546C340.041 417.011 364.324 416.313 386.011 416.759H387.949C387.641 412.667 386.625 408.661 384.945 404.918Z" fill="#EBEBEB"/>
<path d="M411.611 403.561H435.933C438.729 403.568 441.484 404.232 443.976 405.499L451.728 409.375C451.728 409.375 459.48 411.313 460.643 414.026C461.806 416.739 460.41 418.522 457.503 418.755C454.596 418.988 405.274 418.755 405.274 418.755L411.611 403.561Z" fill="#263238"/>
<path d="M399.576 409.394H425.739C426.777 409.394 427.773 409.799 428.515 410.523C429.257 411.247 429.687 412.233 429.712 413.27C429.715 413.793 429.614 414.312 429.415 414.796C429.217 415.281 428.925 415.721 428.556 416.092C428.186 416.463 427.748 416.757 427.264 416.958C426.781 417.159 426.263 417.262 425.739 417.262H408.297L399.576 409.394Z" fill="#263238"/>
<path d="M451.786 409.336H429.267L423.162 403.522H438.162C440.112 403.518 442.031 404.005 443.743 404.937L451.786 409.336Z" fill="#455A64"/>
<path d="M429.189 409.433L422.988 403.503H438.104C440.061 403.507 441.987 404 443.705 404.937L451.922 409.375H451.786L429.189 409.433ZM423.22 403.619L429.228 409.433H451.554L443.666 405.17C441.959 404.241 440.047 403.754 438.104 403.755L423.22 403.619Z" fill="#263238"/>
<path d="M409.15 417.36C408.128 416.818 407.166 416.168 406.282 415.422C404.538 414.084 402.096 412.127 399.286 409.84L398.278 409.007H399.577H406.708C412.096 409.007 416.999 409.007 420.546 409.007C422.49 408.947 424.435 409.058 426.36 409.336C424.439 409.657 422.492 409.787 420.546 409.724C416.999 409.821 412.096 409.898 406.708 409.918H399.577L399.887 409.084C402.658 411.449 405.003 413.484 406.65 414.898C407.577 415.618 408.416 416.444 409.15 417.36Z" fill="#455A64"/>
<path d="M357.192 416.759C357.192 416.487 366.65 416.255 378.297 416.255C389.945 416.255 399.421 416.487 399.421 416.759C399.421 417.03 389.964 417.263 378.297 417.263C366.63 417.263 357.192 417.049 357.192 416.759Z" fill="#263238"/>
<path d="M822.371 465.538H802.991C800.762 465.538 798.564 466.063 796.576 467.069L790.374 470.228C790.374 470.228 784.231 471.837 783.262 473.949C782.293 476.061 783.455 477.534 785.762 477.825C788.068 478.116 827.429 477.825 827.429 477.825L822.371 465.538Z" fill="#C69749"/>
<path d="M831.983 470.228H811.111C810.268 470.228 809.459 470.563 808.863 471.159C808.267 471.755 807.932 472.563 807.932 473.406C807.937 474.246 808.275 475.049 808.87 475.641C809.466 476.233 810.271 476.565 811.111 476.565H824.987L831.983 470.228Z" fill="#C69749"/>
<path d="M790.374 470.228H808.34L813.204 465.558H801.246C799.688 465.557 798.155 465.95 796.789 466.701L790.374 470.228Z" fill="#E0E0E0"/>
<path d="M824.347 476.546C826.606 474.132 829.041 471.891 831.634 469.841L831.944 470.674H826.266C821.944 470.674 818.049 470.577 815.219 470.48C813.685 470.527 812.15 470.397 810.646 470.093C812.154 469.818 813.687 469.707 815.219 469.763C818.049 469.763 821.944 469.647 826.266 469.666H831.944H833.243L832.235 470.48C829.769 472.706 827.132 474.735 824.347 476.546Z" fill="#263238"/>
<path d="M865.801 476.042C860.203 476.553 854.579 476.721 848.96 476.546C843.335 476.721 837.704 476.553 832.099 476.042C837.705 475.543 843.335 475.374 848.96 475.538C854.579 475.375 860.202 475.543 865.801 476.042Z" fill="#263238"/>
<path d="M851.693 472.689C845.088 473.361 838.433 473.361 831.828 472.689C838.433 472.018 845.088 472.018 851.693 472.689Z" fill="#263238"/>
<path d="M257.986 606.218H277.366C279.592 606.221 281.788 606.738 283.781 607.729L289.983 610.83C289.983 610.83 296.107 612.419 297.076 614.532C298.045 616.644 296.882 618.117 294.576 618.408C292.269 618.698 252.909 618.408 252.909 618.408L257.986 606.218Z" fill="#263238"/>
<path d="M248.432 610.869H269.304C270.147 610.869 270.956 611.204 271.552 611.8C272.148 612.396 272.483 613.204 272.483 614.047C272.485 614.465 272.405 614.88 272.246 615.266C272.087 615.653 271.853 616.004 271.558 616.3C271.262 616.596 270.91 616.83 270.524 616.989C270.137 617.147 269.722 617.228 269.304 617.225H255.428L248.432 610.869Z" fill="#263238"/>
<path d="M290.06 610.83H272.075L267.211 606.179H279.168C280.725 606.176 282.257 606.563 283.626 607.303L290.06 610.83Z" fill="#455A64"/>
<path d="M272.056 610.927L267.095 606.179H279.168C280.732 606.183 282.271 606.576 283.645 607.322L290.234 610.888H290.06L272.056 610.927ZM267.327 606.276L272.095 610.83H289.866L283.606 607.458C282.244 606.72 280.718 606.334 279.168 606.334L267.327 606.276Z" fill="#263238"/>
<path d="M256.048 617.225C253.259 615.432 250.609 613.43 248.122 611.237L247.114 610.423H248.413H254.11C258.413 610.423 262.328 610.423 265.138 610.539C266.67 610.483 268.203 610.594 269.711 610.869C268.205 611.159 266.671 611.282 265.138 611.237C262.328 611.353 258.413 611.411 254.11 611.431H248.432L248.742 610.597C251.339 612.622 253.781 614.837 256.048 617.225Z" fill="#455A64"/>
<path d="M244.827 616.082C242.795 616.587 240.693 616.757 238.606 616.586C236.519 616.757 234.418 616.587 232.385 616.082C234.42 615.588 236.519 615.418 238.606 615.578C240.693 615.418 242.793 615.588 244.827 616.082Z" fill="#263238"/>
<path d="M248.936 614.047C247.141 614.551 245.269 614.721 243.412 614.551C241.556 614.723 239.684 614.552 237.889 614.047C239.686 613.553 241.556 613.382 243.412 613.543C245.269 613.384 247.139 613.554 248.936 614.047Z" fill="#263238"/>
</svg>
