<svg width="1111" height="1111" viewBox="0 0 1111 1111" fill="none" xmlns="http://www.w3.org/2000/svg">
<path d="M956.21 522.613C950.842 417.207 906.877 312.082 827.642 240.995C703.051 129.235 460.365 131.629 332.501 236.771C288.149 273.239 262.048 321.427 251.84 377.325C240.928 437.147 255.202 502.144 231.723 559.767C211.554 609.24 161.834 639.582 143.406 689.637C121.406 749.406 133.163 825.333 180.93 869.755C242.107 926.656 351.298 948.586 431.747 956.875C677.461 982.202 936.533 839.466 955.734 572.702C956.931 556.053 957.09 539.315 956.245 522.648L956.21 522.613Z" fill="#C69749"/>
<path opacity="0.7" d="M956.21 522.613C950.842 417.207 906.877 312.082 827.642 240.995C703.051 129.235 460.365 131.629 332.501 236.771C288.149 273.239 262.048 321.427 251.84 377.325C240.928 437.147 255.202 502.144 231.723 559.767C211.554 609.24 161.834 639.582 143.406 689.637C121.406 749.406 133.163 825.333 180.93 869.755C242.107 926.656 351.298 948.586 431.747 956.875C677.461 982.202 936.533 839.466 955.734 572.702C956.931 556.053 957.09 539.315 956.245 522.648L956.21 522.613Z" fill="white"/>
<path d="M821.922 451.034V264.139H841.739V244.867H901.21V260.285H916.786V580.13H959.272V636.01H986.165" stroke="#263238" stroke-miterlimit="10"/>
<path d="M629.36 476.078V331.565H670.421V366.254H690.239V316.165H734.133V531.958H770.952V609.029H800.679V489.577H821.922V464.515" stroke="#263238" stroke-miterlimit="10"/>
<path d="M475.026 379.736V636.009H499.085V485.723H533.07V612.883H629.36V499.205" stroke="#263238" stroke-miterlimit="10"/>
<path d="M399.979 568.567V252.576H475.026V358.546" stroke="#263238" stroke-miterlimit="10"/>
<path d="M254.146 476.078V512.686H275.371V346.982H360.326V603.256H399.979V578.211" stroke="#263238" stroke-miterlimit="10"/>
<path d="M162.098 636.01H193.25V397.09H254.146V456.807" stroke="#263238" stroke-miterlimit="10"/>
<path d="M914.498 181.613C914.498 181.613 903.163 158.962 881.938 161.795C860.694 164.629 857.861 185.872 852.211 187.28C846.562 188.688 833.801 180.205 825.301 184.446C816.8 188.688 811.15 198.597 811.15 198.597C811.15 198.597 799.816 194.355 791.333 198.597C782.85 202.838 778.59 211.339 778.59 211.339H955.576C955.576 211.339 954.168 188.688 941.426 184.429C928.683 180.187 920.182 192.93 914.515 181.595L914.498 181.613Z" stroke="#263238" stroke-miterlimit="10"/>
<path d="M670.914 262.995C670.914 262.995 662.536 246.257 646.837 248.334C631.138 250.429 629.043 266.128 624.854 267.166C620.666 268.205 611.25 261.939 604.966 265.072C598.683 268.205 594.494 275.544 594.494 275.544C594.494 275.544 586.117 272.411 579.834 275.544C573.55 278.677 570.418 284.96 570.418 284.96H701.256C701.256 284.96 700.218 268.222 690.784 265.072C681.368 261.939 675.085 271.355 670.896 262.977L670.914 262.995Z" stroke="#263238" stroke-miterlimit="10"/>
<path d="M227.675 202.697C227.675 202.697 220.6 188.565 207.347 190.325C194.094 192.085 192.317 205.355 188.779 206.235C185.242 207.115 177.286 201.817 171.989 204.475C166.691 207.133 163.154 213.31 163.154 213.31C163.154 213.31 156.078 210.653 150.781 213.31C145.483 215.968 142.826 221.265 142.826 221.265H253.301C253.301 221.265 252.421 207.133 244.466 204.475C236.51 201.817 231.213 209.773 227.675 202.715V202.697Z" stroke="#263238" stroke-miterlimit="10"/>
<path d="M875.285 699.123L841.317 822.886H915.431L881.462 699.123C880.6 695.99 876.147 695.99 875.285 699.123Z" fill="white" stroke="#263238" stroke-miterlimit="10"/>
<path d="M841.317 822.886H904.835L873.085 707.166L841.317 822.886Z" fill="#263238" stroke="#263238" stroke-miterlimit="10"/>
<path d="M854.886 773.465H901.861L895.542 750.409H861.205L854.886 773.465Z" fill="white" stroke="#263238" stroke-miterlimit="10"/>
<path d="M924.16 820.81H832.57C829.824 820.81 827.589 823.045 827.589 825.79C827.589 828.536 829.824 830.771 832.57 830.771H924.16C926.906 830.771 929.141 828.536 929.141 825.79C929.141 823.045 926.906 820.81 924.16 820.81Z" fill="white" stroke="#263238" stroke-miterlimit="10"/>
<path d="M901.738 825.79C901.738 823.045 899.502 820.81 896.757 820.81H832.587C829.842 820.81 827.606 823.045 827.606 825.79C827.606 828.536 829.842 830.771 832.587 830.771H896.757C899.502 830.771 901.738 828.536 901.738 825.79Z" fill="#263238" stroke="#263238" stroke-miterlimit="10"/>
<path d="M278.821 830.578C278.627 830.578 278.434 830.56 278.24 830.543C272.45 830.085 267.381 826.741 264.688 821.584L192.035 683.301L183.323 681.911C181.405 681.611 180.102 679.799 180.402 677.88C180.701 675.962 182.496 674.642 184.432 674.959L194.886 676.631C195.978 676.807 196.928 677.493 197.438 678.479L270.918 818.311C272.485 821.303 275.442 823.256 278.803 823.52C283.362 823.855 287.638 820.968 288.958 816.586L304.974 763.504C305.238 762.607 305.854 761.85 306.682 761.41C307.509 760.97 308.477 760.882 309.374 761.146L414.587 793.195L380.602 727.16C379.704 725.435 380.39 723.306 382.115 722.426C383.84 721.528 385.97 722.215 386.85 723.939L424.654 797.384C425.306 798.634 425.13 800.165 424.232 801.256C423.334 802.347 421.856 802.787 420.501 802.365L310.694 768.907L295.699 818.61C293.482 825.967 286.442 830.912 278.803 830.56L278.821 830.578Z" fill="white" stroke="#263238" stroke-miterlimit="10"/>
<path d="M183.605 684.586C183.411 684.586 183.235 684.568 183.042 684.533L148.264 679.781C144.902 679.324 142.526 676.208 143.002 672.847C143.459 669.485 146.557 667.109 149.936 667.584L184.714 672.336C188.075 672.794 190.451 675.909 189.976 679.271C189.536 682.456 186.738 684.727 183.605 684.586Z" fill="#263238" stroke="#263238" stroke-miterlimit="10"/>
<path d="M452.638 800.429C453.43 783.251 440.125 768.679 422.947 767.887C405.77 767.095 391.197 780.4 390.405 797.578C389.613 814.755 402.918 829.328 420.096 830.12C437.274 830.912 451.846 817.607 452.638 800.429Z" fill="#263238" stroke="#263238" stroke-miterlimit="10"/>
<path d="M429.096 809.393C434.829 805.211 436.086 797.174 431.904 791.442C427.722 785.709 419.685 784.452 413.953 788.634C408.22 792.816 406.963 800.853 411.145 806.585C415.326 812.318 423.364 813.575 429.096 809.393Z" fill="white" stroke="#263238" stroke-miterlimit="10"/>
<path d="M232.216 683.723C232.216 683.723 300.662 646.306 316.872 646.429C333.082 646.552 391.514 691.626 391.514 691.626L232.216 683.723Z" fill="#263238" stroke="#263238" stroke-miterlimit="10"/>
<path d="M221.216 678.848L242.354 762.131L364.955 767.746L414.147 687.666L221.216 678.848Z" fill="white" stroke="#263238" stroke-miterlimit="10"/>
<path d="M154.424 831.317H959.36" stroke="#263238" stroke-miterlimit="10"/>
<path d="M587.93 777.109L585.536 827.058C585.536 827.058 581.136 835.453 579.147 838.251C577.141 841.05 568.358 842.246 565.155 847.438C561.952 852.63 563.149 859.424 563.149 859.424C563.149 859.424 565.947 862.627 573.146 862.627H594.318C599.106 862.627 603.91 861.43 605.899 861.026C607.888 860.621 612.693 859.424 613.89 857.822C615.086 856.221 617.093 850.624 616.688 843.443C616.283 836.245 613.485 829.856 613.485 825.861C613.485 821.866 627.072 780.717 627.072 780.717L587.912 777.127L587.93 777.109Z" fill="#263238" stroke="#263238" stroke-miterlimit="10"/>
<path d="M797.299 775.912C797.299 775.912 797.299 823.854 797.704 825.051C798.109 826.248 810.482 835.048 810.482 835.048C810.482 835.048 830.862 838.251 833.256 841.05C835.65 843.848 836.459 849.832 835.65 851.838C834.84 853.845 815.674 856.238 808.88 856.238C802.086 856.238 793.691 854.637 793.691 854.637C793.691 854.637 790.101 852.631 787.69 853.845L785.296 855.042H766.922C766.922 855.042 763.718 844.253 763.718 837.054C763.718 829.856 766.112 821.478 766.112 821.478L762.909 782.318L797.264 775.93L797.299 775.912Z" fill="#263238" stroke="#263238" stroke-miterlimit="10"/>
<path d="M624.714 578.247C624.714 578.247 611.267 611.863 611.83 622.511C612.394 633.159 607.342 699.845 607.342 699.845C607.342 699.845 593.896 727.864 590.534 743.563C587.173 759.263 584.938 776.634 586.61 781.667C588.282 786.701 610.704 791.189 620.789 788.954C630.874 786.719 637.034 779.432 637.597 777.743C638.16 776.053 643.757 757.01 644.32 747.488C644.883 737.967 644.883 725.629 644.883 725.629C644.883 725.629 654.405 706.568 657.203 697.047C660.002 687.525 688.021 652.783 688.021 652.783L746.294 726.755C746.294 726.755 757.506 756.464 757.506 762.624C757.506 768.784 756.379 781.685 763.102 785.592C769.826 789.517 783.835 788.391 791.122 786.155C798.408 783.92 804.005 778.869 805.694 764.296C807.384 749.723 802.896 745.799 802.896 729.554C802.896 713.309 789.45 657.271 778.238 642.698C767.027 628.125 750.219 608.519 750.219 608.519C750.219 608.519 706.272 621.965 691.822 616.65C677.373 611.335 624.696 578.264 624.696 578.264L624.714 578.247Z" fill="#263238" stroke="#263238" stroke-miterlimit="10"/>
<path d="M789.01 584.231C789.01 584.231 784.698 602.218 784.698 613.746C784.698 625.274 783.976 672.055 783.976 675.293C783.976 678.531 778.221 689.69 776.056 692.928C773.891 696.167 777.499 702.643 777.499 702.643C777.499 702.643 785.419 710.563 787.936 712.007C790.453 713.45 796.208 713.45 798.021 711.285C799.816 709.12 807.736 701.922 808.106 698.683C808.475 695.445 801.277 678.162 801.277 676.015C801.277 673.867 816.747 615.911 816.747 605.843C816.747 595.776 817.099 581.379 817.099 581.379L789.027 584.266L789.01 584.231Z" fill="white" stroke="#263238" stroke-miterlimit="10"/>
<path d="M798.003 711.285C799.798 709.12 807.718 701.922 808.088 698.683C808.44 695.445 801.242 678.162 801.242 676.014C801.242 675.662 801.646 673.902 802.298 671.139L784.029 669.942C783.994 672.794 783.976 674.73 783.976 675.293C783.976 678.531 778.221 689.69 776.056 692.928C773.891 696.166 777.499 702.643 777.499 702.643C777.499 702.643 785.419 710.563 787.936 712.006C790.453 713.45 796.208 713.45 798.021 711.285H798.003Z" fill="#C69749" stroke="#263238" stroke-miterlimit="10"/>
<path d="M825.354 497.515C825.354 497.515 826.797 506.879 826.427 518.741C826.075 530.621 825.354 541.058 825.354 541.058L829.314 582.435C829.314 582.435 807.366 589.282 798.725 589.282C790.083 589.282 785.402 586.765 785.402 586.765V559.767C785.402 559.767 792.952 544.296 798.003 532.064C803.037 519.832 815.269 496.072 815.99 494.629C816.712 493.186 825.354 497.515 825.354 497.515Z" fill="#A1A1A1" stroke="#263238" stroke-miterlimit="10"/>
<path d="M796.56 547.887C796.56 547.887 812.4 544.648 819.95 534.211" stroke="#263238" stroke-miterlimit="10"/>
<path d="M819.598 541.41C819.598 541.41 814.917 545.37 804.128 547.886" stroke="#263238" stroke-miterlimit="10"/>
<path d="M782.533 442.093C782.533 442.093 754.461 437.059 738.99 432.73C723.52 428.418 714.157 427.326 708.032 430.565C701.907 433.803 664.842 503.622 661.973 507.582C659.086 511.542 636.066 537.45 629.941 553.29C623.816 569.13 619.504 588.19 619.504 588.19C619.504 588.19 660.882 634.619 681.403 637.136L687.88 637.858L701.203 619.149L701.555 636.062C701.555 636.062 710.918 634.267 726.019 627.421C741.138 620.574 757.682 609.786 758.051 607.99C758.421 606.195 754.091 603.309 754.091 603.309C754.091 603.309 764.176 586.747 768.84 582.787C773.522 578.827 795.469 550.755 795.469 550.755C795.469 550.755 818.859 514.411 819.581 500.736C820.302 487.061 822.467 468.352 817.786 461.506C813.104 454.659 782.515 442.075 782.515 442.075L782.533 442.093Z" fill="#C69749" stroke="#263238" stroke-miterlimit="10"/>
<path d="M758.051 607.99C758.403 606.195 754.091 603.309 754.091 603.309C754.091 603.309 756.59 599.208 759.67 594.597C742.035 596.674 718.046 597.624 698.422 591.64C678.622 585.586 655.778 558.552 639.867 535.918C635.802 541.779 632.229 547.658 630.205 552.621C646.59 574.92 670.051 601.355 693.283 608.466C706.325 612.443 720.686 613.816 734.221 613.816C740.31 613.816 746.224 613.534 751.786 613.112C755.517 610.595 757.928 608.677 758.051 608.008V607.99Z" fill="white" stroke="#263238" stroke-miterlimit="10"/>
<path d="M733.482 552.551C711.816 543.064 686.56 508.375 673.325 487.466C669.136 494.999 665.634 501.317 663.627 504.819C677.566 525.746 702.03 558.007 726.424 568.69C735.893 572.826 749.814 574.903 768.048 574.903C770.653 574.903 773.346 574.85 776.126 574.762C781.037 568.936 787.091 561.368 791.104 556.299C768.013 558.095 745.573 557.848 733.464 552.568L733.482 552.551Z" fill="white" stroke="#263238" stroke-miterlimit="10"/>
<path d="M828.962 863.63C828.082 863.63 827.219 863.19 826.709 862.38L778.485 784.289C777.71 783.04 778.098 781.421 779.347 780.664C780.579 779.907 782.216 780.277 782.973 781.526L831.197 859.617C831.971 860.867 831.584 862.486 830.334 863.243C829.894 863.507 829.419 863.63 828.944 863.63H828.962Z" fill="white" stroke="#263238" stroke-miterlimit="10"/>
<path d="M668.08 632.454C668.08 632.454 660.16 641.448 660.53 645.056C660.882 648.646 681.403 695.797 684.642 698.313C687.88 700.83 697.595 702.273 697.595 702.273L713.066 723.147L750.853 700.478L704.072 623.461C704.072 623.461 696.522 617.706 691.84 616.614C687.158 615.541 684.994 614.45 682.125 616.614C679.238 618.779 668.098 632.454 668.098 632.454H668.08Z" fill="#A1A1A1" stroke="#263238" stroke-miterlimit="10"/>
<path d="M713.066 723.147L775.739 785.821C777.939 788.021 781.477 788.162 783.853 786.138C785.842 784.431 786.493 781.615 785.437 779.203L750.87 700.479L713.083 723.147H713.066Z" fill="#A1A1A1" stroke="#263238" stroke-miterlimit="10"/>
<path d="M686.085 642.539C686.085 642.539 707.68 684.286 724.224 711.285" stroke="#263238" stroke-miterlimit="10"/>
<path d="M697.595 702.273L674.205 662.321C674.205 662.321 672.41 664.486 676.37 673.11C680.33 681.752 686.807 690.376 686.807 690.376" stroke="#263238" stroke-miterlimit="10"/>
<path d="M728.554 738.987L759.143 720.278" stroke="#263238" stroke-miterlimit="10"/>
<path d="M733.587 744.39L762.381 727.477" stroke="#263238" stroke-miterlimit="10"/>
<path d="M722.077 666.352C724.47 671.368 723.432 676.877 719.754 678.619C716.075 680.379 711.147 677.722 708.754 672.688C706.36 667.672 707.398 662.163 711.077 660.421C714.755 658.661 719.683 661.318 722.077 666.352Z" fill="white" stroke="#263238" stroke-miterlimit="10"/>
<path d="M762.275 734.358L781.019 694.653C783.29 689.866 789.379 688.37 793.603 691.555C797.247 694.301 798.003 699.475 795.311 703.154L769.368 738.582C767.925 740.536 765.127 740.853 763.296 739.251C761.906 738.037 761.483 736.03 762.275 734.358Z" fill="#A1A1A1" stroke="#263238" stroke-miterlimit="10"/>
<path d="M649.371 487.431C649.371 487.431 635.696 511.191 633.901 514.781C632.106 518.371 659.456 598.627 659.456 598.627C659.456 598.627 656.939 619.501 656.939 622.387C656.939 625.274 666.302 631.381 668.098 632.472C669.893 633.546 672.058 634.637 674.574 635.359C677.091 636.08 684.659 635.007 684.659 635.007C684.659 635.007 680.699 623.496 682.142 619.888C683.586 616.298 685.733 615.576 687.176 615.576C688.619 615.576 691.858 616.65 691.858 616.65C691.858 616.65 691.858 610.525 690.784 607.287C689.71 604.048 677.461 596.498 676.387 594.685C675.314 592.89 663.064 520.906 663.064 520.906L666.302 514.059L649.389 487.431H649.371Z" fill="white" stroke="#263238" stroke-miterlimit="10"/>
<path d="M676.37 594.667C676.194 594.368 675.718 592.239 675.067 588.877C669.506 588.666 662.149 592.08 657.995 594.298C658.928 597.043 659.456 598.627 659.456 598.627C659.456 598.627 656.939 619.501 656.939 622.387C656.939 625.274 666.302 631.381 668.098 632.472C669.893 633.546 672.058 634.637 674.574 635.359C677.091 636.08 684.659 635.007 684.659 635.007C684.659 635.007 680.699 623.496 682.142 619.888C683.586 616.298 685.733 615.576 687.176 615.576C688.619 615.576 691.858 616.65 691.858 616.65C691.858 616.65 691.858 610.525 690.784 607.287C689.71 604.048 677.461 596.498 676.387 594.685L676.37 594.667Z" fill="#C69749" stroke="#263238" stroke-miterlimit="10"/>
<path d="M719.19 448.57C719.19 448.57 719.19 437.781 717.395 435.246C712.626 428.576 711.64 429.122 708.032 430.565C704.442 432.008 692.914 437.394 687.51 441.354C682.107 445.314 641.082 483.823 641.082 483.823L666.267 520.536L692.896 504.344C692.896 504.344 697.578 501.827 702.259 497.867C706.941 493.907 720.616 470.517 719.173 448.57H719.19Z" fill="#A1A1A1" stroke="#263238" stroke-miterlimit="10"/>
<path d="M801.347 864.422H846.562" stroke="#263238" stroke-miterlimit="10"/>
<path d="M859.445 864.211L850.803 865.073L851.226 868.541L865.728 867.889L859.445 864.211Z" stroke="#263238" stroke-miterlimit="10"/>
<path d="M871.131 862.046L875.461 865.285L886.936 863.982L892.568 862.68L889.329 859.864C889.329 859.864 883.486 858.562 882.835 858.562C882.184 858.562 876.552 859.002 876.552 859.002L871.149 862.029L871.131 862.046Z" stroke="#263238" stroke-miterlimit="10"/>
<path d="M867.03 861.395L863.563 857.277L857.509 860.093C857.509 860.093 862.701 862.909 863.563 863.12C864.426 863.331 867.03 861.395 867.03 861.395Z" stroke="#263238" stroke-miterlimit="10"/>
<path d="M855.995 856.625H846.473L844.098 859.441L851.454 860.533L855.995 856.625Z" stroke="#263238" stroke-miterlimit="10"/>
<path d="M839.979 857.717L834.787 857.505L833.062 860.093L838.888 860.533L839.979 857.717Z" stroke="#263238" stroke-miterlimit="10"/>
<path d="M761.29 446.053C761.29 446.053 755.534 458.285 754.443 483.118C753.37 507.952 753.37 520.553 752.648 526.309C751.926 532.064 750.853 543.222 750.853 543.222C750.853 543.222 767.414 528.825 774.613 519.11C781.811 509.395 783.606 493.203 783.606 493.203L791.878 467.296C791.878 467.296 795.469 459.024 794.765 456.507C794.043 453.99 782.163 447.513 772.818 446.422C763.454 445.349 761.307 446.07 761.307 446.07L761.29 446.053Z" fill="#A1A1A1" stroke="#263238" stroke-miterlimit="10"/>
<path d="M782.533 442.093C782.533 442.093 771.744 440.298 765.971 442.093C760.216 443.888 758.051 456.12 758.051 465.483C758.051 474.846 761.642 491.39 764.176 495.72C766.693 500.032 767.766 500.032 771.374 498.958C774.965 497.885 783.607 493.203 783.607 493.203C783.607 493.203 782.357 480.25 783.958 472.33C785.56 464.41 795.838 450.013 795.838 450.013L782.515 442.093H782.533Z" fill="white" stroke="#263238" stroke-miterlimit="10"/>
<path d="M778.326 472.594C778.326 472.594 773.768 477.152 771.744 484.738C769.72 492.323 766.693 499.416 766.693 499.416C766.693 499.416 779.347 496.882 786.933 489.296C794.518 481.711 778.326 472.594 778.326 472.594Z" fill="#263238" stroke="#263238" stroke-miterlimit="10"/>
<path d="M792.741 435.405C792.741 435.405 791.174 436.021 789.309 438.52C787.443 441.019 786.194 442.251 784.944 442.251C783.694 442.251 779.963 440.386 778.714 441.934C777.464 443.483 775.598 443.501 778.397 447.232C781.195 450.963 784.627 454.395 784.627 454.395C784.627 454.395 783.061 461.259 785.56 464.374C788.059 467.49 803.952 467.49 805.184 467.173C806.434 466.856 808.299 468.422 807.683 462.491C807.067 456.56 792.723 435.387 792.723 435.387L792.741 435.405Z" fill="#263238" stroke="#263238" stroke-miterlimit="10"/>
<path d="M819.229 496.178C819.229 496.178 812.998 503.975 811.133 505.207C809.267 506.456 800.221 503.341 800.221 503.341C800.221 503.341 791.491 508.955 788.376 507.706C785.261 506.456 775.598 488.381 775.598 480.602C775.598 472.823 780.28 461.911 780.28 461.911C780.28 461.911 779.963 453.181 784.011 450.066C788.059 446.951 791.491 450.999 792.107 454.114C792.723 457.229 788.992 462.843 791.174 463.459C793.357 464.075 802.702 463.459 802.702 463.459C802.702 463.459 812.981 491.496 819.211 496.178H819.229Z" fill="white" stroke="#263238" stroke-miterlimit="10"/>
<path d="M803.019 490.88C803.019 490.88 803.336 496.794 809.25 497.428" stroke="#263238" stroke-miterlimit="10"/>
<path d="M793.99 491.496C793.99 491.496 792.741 497.11 796.49 500.226" stroke="#263238" stroke-miterlimit="10"/>
<path d="M800.203 418.386C800.203 418.386 786.123 420.639 787.25 429.087C788.376 437.535 796.824 447.126 797.951 452.758C799.077 458.39 803.583 478.12 806.399 485.442C809.215 492.763 809.778 496.143 817.099 499.522C824.421 502.901 836.829 506.843 839.645 502.901C842.461 498.959 842.461 484.298 842.461 484.298C842.461 484.298 855.978 471.344 856.541 452.741C857.104 434.138 849.219 422.874 837.375 416.678C825.547 410.483 810.323 407.104 800.186 418.368L800.203 418.386Z" fill="white" stroke="#263238" stroke-miterlimit="10"/>
<path d="M792.125 423.578C792.125 423.578 789.01 427.626 792.741 435.422C796.472 443.219 802.403 450.699 803.653 458.162C804.902 465.642 805.835 476.237 812.682 481.218C819.528 486.198 832.306 490.246 837.603 488.698" stroke="#263238" stroke-miterlimit="10"/>
<path d="M798.971 420.762C798.971 420.762 795.856 427.309 799.288 432.29C802.72 437.271 808.634 449.432 811.432 455.979C814.23 462.527 814.054 473.139 828.258 478.719" stroke="#263238" stroke-miterlimit="10"/>
<path d="M392.64 414.267C392.64 414.267 400.243 430.107 409.114 435.176C417.984 440.245 469.288 445.947 469.288 445.947L478.792 399.079C478.792 399.079 462.318 402.88 455.349 403.514C448.379 404.147 440.776 404.147 440.776 404.147L392.64 414.285V414.267Z" fill="#A1A1A1" stroke="#263238" stroke-miterlimit="10"/>
<path d="M404.678 385.755C404.678 385.755 398.342 388.29 394.541 392.091C390.739 395.893 390.739 413 392.64 414.267C394.541 415.534 414.182 425.038 417.35 425.038C420.518 425.038 436.992 418.702 439.526 414.901C442.061 411.099 445.862 400.328 442.061 393.992C438.259 387.656 409.114 380.686 404.678 385.755Z" fill="white" stroke="#263238" stroke-miterlimit="10"/>
<path d="M409.747 369.915C409.747 369.915 396.442 399.061 401.51 407.298C406.579 415.534 416.717 416.802 424.32 412.366C431.923 407.931 435.091 399.694 436.358 397.16C437.626 394.626 451.653 333.096 451.653 333.096C451.653 333.096 457.355 329.928 460.523 328.027C463.691 326.126 466.877 322.008 466.877 322.008C466.877 322.008 475.73 318.206 483.966 314.088C488.384 311.87 481.749 308.72 479.848 308.72C477.947 308.72 471.294 311.554 471.294 311.554V304.584C471.294 304.584 455.454 304.584 449.118 305.218C442.782 305.851 437.08 304.584 432.645 309.019C428.21 313.454 426.309 333.096 426.309 333.096L409.747 369.933V369.915Z" fill="white" stroke="#263238" stroke-miterlimit="10"/>
<path d="M479.83 308.702C477.93 308.702 471.277 311.536 471.277 311.536V304.566C471.277 304.566 455.437 304.566 449.101 305.2C442.765 305.834 437.062 304.566 432.627 309.002C428.192 313.437 426.291 333.078 426.291 333.078L426.062 333.906C431.026 336.387 439.597 339.784 450.544 340.787C451.213 336.053 451.618 333.078 451.618 333.078C451.618 333.078 457.32 329.91 460.488 328.01C463.656 326.109 466.842 321.99 466.842 321.99C466.842 321.99 475.712 318.189 483.931 314.07C488.349 311.853 481.714 308.702 479.813 308.702H479.83Z" fill="#C69749" stroke="#263238" stroke-linecap="round" stroke-linejoin="round"/>
<path d="M432.645 309.019C432.645 309.019 439.016 299.532 441.234 297.632C443.451 295.731 453.254 297.948 453.254 297.948C453.254 297.948 461.174 307.752 458.957 309.336C456.739 310.92 450.086 307.118 450.086 307.118L442.483 308.702" fill="#C69749"/>
<path d="M432.645 309.019C432.645 309.019 439.016 299.532 441.234 297.632C443.451 295.731 453.254 297.948 453.254 297.948C453.254 297.948 461.174 307.752 458.957 309.336C456.739 310.92 450.086 307.118 450.086 307.118L442.483 308.702" stroke="#263238" stroke-miterlimit="10"/>
<path d="M453.254 297.949C453.254 297.949 457.69 296.365 459.274 296.998C460.858 297.632 466.56 306.168 466.877 308.385C467.194 310.603 463.075 310.286 463.075 310.286L458.957 309.336L453.254 297.949Z" fill="#C69749" stroke="#263238" stroke-miterlimit="10"/>
<path d="M459.256 296.998C459.256 296.998 463.691 296.681 465.592 297.948C467.493 299.216 469.693 301.081 471.277 304.584C472.861 308.086 466.859 308.403 466.859 308.403C466.859 308.403 464.642 303.651 463.691 302.067C462.741 300.483 459.256 296.998 459.256 296.998Z" fill="#C69749" stroke="#263238" stroke-miterlimit="10"/>
<path d="M465.592 297.948C465.592 297.948 470.978 296.681 472.878 298.582C474.779 300.483 477.63 305.552 476.046 306.819C474.462 308.086 471.294 304.584 471.294 304.584C471.294 304.584 467.194 297.632 465.61 297.948H465.592Z" fill="#C69749" stroke="#263238" stroke-miterlimit="10"/>
<path d="M256.011 307.347L257.578 289.43L203.792 284.731L202.226 302.665L219.773 304.197L216.57 340.822L199.04 339.291L197.474 357.208L251.242 361.907L252.808 343.973L235.261 342.441L238.464 305.816L256.011 307.347Z" fill="#263238" stroke="#263238" stroke-miterlimit="10"/>
<path d="M257.578 289.43L697.982 327.728L695.642 345.574L256.011 307.347L257.578 289.43Z" fill="white" stroke="#263238" stroke-miterlimit="10"/>
<path d="M238.467 305.713L235.269 342.34L674.898 380.725L678.096 344.098L238.467 305.713Z" fill="white" stroke="#263238" stroke-miterlimit="10"/>
<path d="M252.797 343.881L251.233 361.8L690.862 400.185L692.427 382.266L252.797 343.881Z" fill="white" stroke="#263238" stroke-miterlimit="10"/>
<path d="M260.042 324.26C259.883 326.003 258.352 327.305 256.61 327.147C254.867 326.988 253.565 325.457 253.723 323.715C253.882 321.972 255.413 320.67 257.155 320.828C258.898 320.987 260.2 322.518 260.042 324.26Z" stroke="#263238" stroke-miterlimit="10"/>
<path d="M290.859 326.953C290.701 328.696 289.17 329.998 287.427 329.84C285.685 329.681 284.382 328.15 284.541 326.408C284.699 324.665 286.23 323.363 287.973 323.521C289.715 323.68 291.018 325.211 290.859 326.953Z" stroke="#263238" stroke-miterlimit="10"/>
<path d="M321.694 329.646C321.536 331.389 320.005 332.691 318.262 332.533C316.52 332.374 315.218 330.843 315.376 329.101C315.534 327.358 317.066 326.056 318.808 326.214C320.55 326.373 321.853 327.904 321.694 329.646Z" stroke="#263238" stroke-miterlimit="10"/>
<path d="M598.296 353.811C598.138 355.553 596.606 356.856 594.864 356.697C593.122 356.539 591.819 355.008 591.978 353.265C592.136 351.523 593.667 350.22 595.41 350.379C597.152 350.537 598.454 352.068 598.296 353.811Z" stroke="#263238" stroke-miterlimit="10"/>
<path d="M629.131 356.504C628.973 358.246 627.442 359.548 625.699 359.39C623.957 359.232 622.654 357.7 622.813 355.958C622.971 354.216 624.502 352.913 626.245 353.072C627.987 353.23 629.29 354.761 629.131 356.504Z" stroke="#263238" stroke-miterlimit="10"/>
<path d="M659.949 359.197C659.79 360.939 658.259 362.241 656.517 362.083C654.774 361.925 653.472 360.393 653.63 358.651C653.789 356.909 655.32 355.606 657.062 355.765C658.805 355.923 660.107 357.454 659.949 359.197Z" stroke="#263238" stroke-miterlimit="10"/>
<path d="M453.166 577.806C453.166 577.806 431.378 620.081 428.174 645.707C424.971 671.333 420.483 698.243 423.053 703.998C425.622 709.771 428.826 720.014 430.744 721.299C432.662 722.584 462.776 779.59 465.328 782.16C467.898 784.729 473.019 792.403 473.019 792.403C473.019 792.403 471.101 798.809 472.386 801.379C473.67 803.949 478.792 810.989 478.792 810.989L487.768 820.598C487.768 820.598 501.214 822.517 506.354 816.761C511.475 810.989 514.045 801.379 514.045 798.827C514.045 796.275 516.615 793.705 511.475 787.299C506.354 780.893 501.232 777.056 501.232 777.056C501.232 777.056 485.216 730.926 482.646 721.317C480.077 711.707 471.752 691.854 471.752 691.854L498.663 629.075L519.166 591.921L453.184 577.824L453.166 577.806Z" fill="#263238" stroke="#263238" stroke-miterlimit="10"/>
<path d="M478.792 810.971L484.6 825.192C484.6 825.192 488.718 825.192 478.422 833.094C468.126 840.997 461.262 845.115 460.576 847.861C459.89 850.606 460.928 856.45 461.949 857.822C462.97 859.195 463.322 862.979 477.736 862.293C492.15 861.606 500.387 854.056 505.896 849.251C511.387 844.446 516.192 838.269 516.192 838.269L517.23 841.701C517.23 841.701 520.328 838.269 522.722 835.171C525.133 832.074 527.878 826.582 527.878 824.523C527.878 822.464 519.642 812.854 517.582 807.698C515.523 802.541 514.045 798.81 514.045 798.81C514.045 798.81 509.346 809.405 505.579 811.816C501.813 814.227 498.363 815.934 498.363 815.934C498.363 815.934 495.266 810.443 487.029 809.757C478.792 809.07 478.81 810.989 478.81 810.989L478.792 810.971Z" fill="white" stroke="#263238" stroke-miterlimit="10"/>
<path d="M525.52 820.176C521.613 823.731 515.488 830.806 512.426 836.174C508.307 843.39 497.325 854.373 482.893 857.453C473.565 859.459 465.398 856.573 460.787 854.285C461.086 855.869 461.526 857.224 461.949 857.805C462.987 859.177 463.322 862.961 477.736 862.275C492.15 861.589 500.387 854.038 505.896 849.233C511.387 844.429 516.192 838.251 516.192 838.251L517.23 841.683C517.23 841.683 520.328 838.251 522.722 835.153C525.133 832.056 527.878 826.565 527.878 824.505C527.878 823.801 526.893 822.182 525.538 820.176H525.52Z" fill="white" stroke="#263238" stroke-miterlimit="10"/>
<path d="M496.093 594.456L513.394 773.184L514.027 798.81C514.027 798.81 510.191 808.419 512.109 813.541C514.027 818.662 519.149 828.272 519.149 828.272C519.149 828.272 531.328 841.085 537.083 837.882C542.856 834.678 551.181 825.069 551.181 825.069C551.181 825.069 559.506 814.174 559.506 807.768C559.506 801.361 556.303 793.67 556.303 786.63V744.989C556.303 738.582 557.587 674.518 557.587 674.518L566.563 584.195C566.563 584.195 549.262 579.074 540.938 579.707C532.613 580.341 496.093 594.438 496.093 594.438V594.456Z" fill="#263238" stroke="#263238" stroke-miterlimit="10"/>
<path d="M512.109 813.541L513.798 826.565C513.798 826.565 509.328 838.92 506.582 843.39C503.837 847.861 496.621 851.293 492.502 853.686C488.384 856.098 487.698 860.902 489.405 865.021C491.13 869.139 492.837 871.198 499.366 872.923C505.896 874.648 526.154 873.61 533.018 869.491C539.882 865.373 545.725 861.254 545.725 861.254V864.352C545.725 864.352 548.136 862.979 552.254 860.234C556.373 857.488 557.411 855.077 557.411 855.077C557.411 855.077 557.059 838.938 556.038 835.506C555 832.074 554.666 830.701 553.979 829.328C553.293 827.955 555.704 815.248 555.704 815.248C555.704 815.248 550.213 822.112 547.115 824.171C544.018 826.23 540.938 826.582 539.565 826.582C538.192 826.582 538.526 817.994 536.819 815.934C535.094 813.875 528.917 811.464 524.112 811.13C519.307 810.778 512.126 813.541 512.126 813.541H512.109Z" fill="white" stroke="#263238" stroke-miterlimit="10"/>
<path d="M549.491 851.293C546.394 854.725 535.411 864 516.192 867.432C503.995 869.615 494.579 866.957 489.317 864.722C489.352 864.827 489.387 864.933 489.422 865.039C491.147 869.157 492.854 871.216 499.384 872.941C505.914 874.666 526.171 873.627 533.035 869.509C539.899 865.391 545.742 861.272 545.742 861.272V864.37C545.742 864.37 548.154 862.997 552.272 860.251C556.39 857.506 557.429 855.095 557.429 855.095C557.429 855.095 557.27 848.037 556.883 842.247C554.701 845.063 551.462 849.181 549.544 851.311L549.491 851.293Z" fill="white" stroke="#263238" stroke-miterlimit="10"/>
<path d="M452.533 556.018L446.126 582.928L464.061 602.147L473.67 588.05L480.71 603.432C480.71 603.432 516.579 604.717 531.962 598.944C547.344 593.171 558.221 587.416 558.221 587.416L571.667 597.026L569.098 567.563L452.515 556.035L452.533 556.018Z" fill="white" stroke="#263238" stroke-miterlimit="10"/>
<path d="M518.99 380.352C518.99 380.352 476.416 392.742 473.547 397.195C470.696 401.648 463.374 419.758 463.374 439.136C463.374 458.514 456.07 511.595 455.754 516.664C455.437 521.75 447.816 566.877 447.816 566.877C447.816 566.877 462.758 570.379 466.56 572.28C470.362 574.181 472.914 574.498 472.914 574.498L477.366 567.194L479.267 575.448C479.267 575.448 500.563 579.584 530.43 577.666C560.298 575.747 569.837 572.262 569.837 572.262L587.314 455.645C587.314 455.645 597.17 430.864 591.133 411.469C585.096 392.091 570.154 385.738 562.216 383.819C554.278 381.918 546.957 380 546.957 380L518.99 380.317V380.352Z" fill="#C69749" stroke="#263238" stroke-linecap="round" stroke-linejoin="round"/>
<path d="M508.184 384.47L495.794 394.96L496.744 411.169L501.83 401.63L510.103 413.07L508.184 384.47Z" fill="white" stroke="#263238" stroke-linecap="round" stroke-linejoin="round"/>
<path d="M504.048 372.397L509.768 408.618L544.722 374.931L541.536 363.174C541.536 363.174 527.562 373.981 521.842 376.515C516.122 379.05 504.048 372.379 504.048 372.379V372.397Z" fill="white" stroke="#263238" stroke-linecap="round" stroke-linejoin="round"/>
<path d="M487.539 318.065C487.539 318.065 491.359 300.905 498.029 292.968C504.699 285.03 524.728 281.528 536.168 285.664C547.608 289.8 556.179 301.557 557.781 311.395C559.365 321.251 559.682 324.419 560.632 326.654C561.583 328.872 562.85 330.79 562.85 330.79L486.589 320.934L487.539 318.083V318.065Z" fill="white" stroke="#263238" stroke-miterlimit="10"/>
<path d="M492.291 318.065C492.291 318.065 470.995 316.798 475.765 319.966C480.535 323.152 481.485 324.736 500.546 327.904C519.607 331.072 542.17 336.475 542.17 336.475C542.17 336.475 551.392 344.096 560.28 341.561C569.168 339.027 570.77 336.158 565.683 331.388C560.597 326.619 492.274 318.048 492.274 318.048L492.291 318.065Z" fill="#C4C4C4" stroke="#263238" stroke-miterlimit="10"/>
<path d="M520.575 291.683C520.575 291.683 523.109 286.913 527.562 285.329C532.015 283.745 536.133 285.646 536.133 285.646C536.133 285.646 518.656 273.889 506.266 288.497" fill="white"/>
<path d="M520.575 291.683C520.575 291.683 523.109 286.913 527.562 285.329C532.015 283.745 536.133 285.646 536.133 285.646C536.133 285.646 518.656 273.889 506.266 288.497" stroke="#263238" stroke-miterlimit="10"/>
<path d="M493.453 325.123C493.453 325.123 492.626 354.92 494.527 361.273C496.427 367.627 506.6 379.384 509.786 380.334C512.971 381.285 518.691 382.869 521.859 381.918C525.045 380.968 537.119 372.379 539.97 369.845C542.821 367.31 545.69 359.672 545.69 357.771C545.69 355.87 546.957 352.051 546.957 352.051C546.957 352.051 551.093 351.417 552.677 349.2C554.261 346.982 554.261 343.163 552.994 341.579C551.727 339.995 550.143 339.045 550.143 339.045L550.459 333.325L493.453 325.141V325.123Z" fill="white" stroke="#263238" stroke-linecap="round" stroke-linejoin="round"/>
<path d="M505.016 340.312C505.016 340.312 505.016 346.982 504.699 348.566C504.383 350.15 501.848 352.702 503.115 354.286C504.383 355.87 507.885 357.789 512.338 355.87" stroke="#263238" stroke-linecap="round" stroke-linejoin="round"/>
<path d="M504.699 361.907C504.699 361.907 507.885 363.808 513.271 362.54C518.674 361.273 521.842 358.721 521.842 358.721" stroke="#263238" stroke-linecap="round" stroke-linejoin="round"/>
<path d="M484.987 327.27C484.987 327.27 484.354 335.208 486.888 339.344C489.423 343.48 493.242 344.43 497.695 343.796C502.147 343.163 505.315 338.076 509.135 339.66C512.954 341.244 511.986 346.648 523.426 346.648C534.866 346.648 536.133 333.624 536.133 333.624L484.97 327.27H484.987Z" stroke="#263238" stroke-linecap="round" stroke-linejoin="round"/>
<path d="M533.933 331.089C533.933 331.089 536.784 343.797 540.603 344.43C544.422 345.064 550.142 339.027 550.142 339.027L550.459 333.307L533.933 331.089Z" fill="#263238" stroke="#263238" stroke-linecap="round" stroke-linejoin="round"/>
<path d="M518.709 336.651C518.709 338.411 517.741 339.837 516.544 339.837C515.347 339.837 514.379 338.411 514.379 336.651C514.379 334.891 515.347 333.465 516.544 333.465C517.741 333.465 518.709 334.891 518.709 336.651Z" fill="#263238"/>
<path d="M502.411 334.627C502.411 336.387 501.443 337.813 500.247 337.813C499.05 337.813 498.082 336.387 498.082 334.627C498.082 332.867 499.05 331.441 500.247 331.441C501.443 331.441 502.411 332.867 502.411 334.627Z" fill="#263238"/>
<path d="M507.867 396.544L510.103 413.07L551.093 380.668L546.323 370.496L507.867 396.544Z" fill="white" stroke="#263238" stroke-linecap="round" stroke-linejoin="round"/>
<path d="M461.315 468.352C460.717 474.177 460.048 480.161 459.397 485.864C475.765 487.201 505.65 490.14 530.712 495.35C552.272 499.838 569.045 507.089 578.866 512.07L581.611 493.801C570.523 488.609 554.349 482.308 534.302 478.137C508.307 472.716 478.176 469.724 461.315 468.352Z" fill="white" stroke="#263238" stroke-miterlimit="10"/>
<path d="M573.251 549.47L575.891 531.817C540.832 533.137 476.17 527.03 454.645 524.865C453.906 529.705 452.903 536.024 451.882 542.289C470.714 544.225 526.611 549.593 564.979 549.593C567.848 549.593 570.594 549.558 573.251 549.488V549.47Z" fill="white" stroke="#263238" stroke-miterlimit="10"/>
<path d="M577.827 446.897C577.827 446.897 589.162 438.291 590.341 428.523C591.52 418.755 589.567 403.9 577.44 396.473C565.331 389.046 550.09 400.38 547.731 404.288C545.39 408.195 534.056 422.257 534.056 422.257L528.97 427.344L524.675 428.118L508.659 422.257L488.331 447.267C488.331 447.267 520.768 484.385 532.49 484.79C544.211 485.177 563.747 462.913 566.106 460.168C568.447 457.44 577.827 446.88 577.827 446.88V446.897Z" fill="#A1A1A1" stroke="#263238" stroke-miterlimit="10"/>
<path d="M524.675 428.136C524.675 428.136 539.142 434.384 545.39 437.904C551.638 441.424 557.904 448.464 557.904 448.464" stroke="#263238" stroke-miterlimit="10"/>
<path d="M546.182 432.817C546.182 432.817 560.65 434.384 564.557 441.019" stroke="#263238" stroke-miterlimit="10"/>
<path d="M537.189 430.476C537.189 430.476 542.663 428.136 551.656 428.523" stroke="#263238" stroke-miterlimit="10"/>
<path d="M499.278 415.235L454.733 367.557L448.872 352.315C448.872 352.315 442.237 344.113 438.312 340.593C434.387 337.073 431.272 334.345 430.498 337.073L429.723 339.801C429.723 339.801 423.862 336.281 421.522 336.281C419.181 336.281 417.227 337.056 419.568 339.414C421.909 341.773 424.654 346.454 424.654 346.454L426.608 349.587C426.608 349.587 419.973 344.501 414.499 343.339C409.026 342.16 406.685 344.518 409.026 346.859C411.366 349.2 416.453 352.72 416.453 352.72L422.701 360.147C422.701 360.147 413.32 357.014 410.187 356.24C407.054 355.465 406.28 359.76 409.413 361.713C412.546 363.667 424.267 368.349 424.267 368.349C424.267 368.349 429.741 378.504 435.214 381.249C440.688 383.977 445.37 387.885 445.37 387.885L482.101 442.198L499.296 415.235H499.278Z" fill="white" stroke="#263238" stroke-miterlimit="10"/>
<path d="M454.733 367.557L448.872 352.315C448.872 352.315 442.237 344.113 438.312 340.593C434.387 337.073 431.272 334.345 430.498 337.073L429.723 339.801C429.723 339.801 423.862 336.281 421.522 336.281C419.181 336.281 417.227 337.056 419.568 339.414C421.909 341.773 424.654 346.454 424.654 346.454L426.608 349.587C426.608 349.587 419.973 344.501 414.499 343.339C409.026 342.16 406.685 344.518 409.026 346.859C411.366 349.2 416.453 352.72 416.453 352.72L422.701 360.147C422.701 360.147 413.32 357.014 410.187 356.24C407.054 355.465 406.28 359.76 409.413 361.713C412.546 363.667 424.267 368.349 424.267 368.349C424.267 368.349 429.741 378.504 435.214 381.249C440.688 383.977 445.37 387.885 445.37 387.885L446.69 389.838L462.336 375.688L454.75 367.574L454.733 367.557Z" fill="#C69749" stroke="#263238" stroke-miterlimit="10"/>
<path d="M429.723 339.801C429.723 339.801 435.971 346.049 437.538 347.228C439.104 348.408 439.878 350.361 439.878 350.361" stroke="#263238" stroke-miterlimit="10"/>
<path d="M426.59 349.587L431.677 355.448" stroke="#263238" stroke-miterlimit="10"/>
<path d="M500.845 409.761L475.043 438.678L488.331 455.099L513.341 419.142L500.845 409.761Z" fill="white" stroke="#263238" stroke-miterlimit="10"/>
</svg>
